<svg width="38" height="39" viewBox="0 0 38 39" fill="none" xmlns="http://www.w3.org/2000/svg">
<path fill-rule="evenodd" clip-rule="evenodd" d="M0.65625 0.634375C0.30625 0.984375 0.021875 1.4875 0.021875 1.72812C0 1.99063 0.109375 2.40625 0.2625 2.66875C0.39375 2.95312 0.65625 3.28125 0.853125 3.43438C1.07188 3.60938 1.96875 3.69687 3.10625 3.71875C4.83438 3.71875 5.00938 3.7625 4.9 4.09063C4.85674 4.23482 4.73745 4.68315 4.59224 5.22888C4.51715 5.51108 4.43514 5.81931 4.35313 6.125C4.1125 7.02187 3.91562 8.44375 3.91562 9.29688C3.89375 10.15 4.00312 11.2656 4.15625 11.8125C4.2875 12.3594 4.68125 13.2344 5.03125 13.7812C5.35938 14.3281 6.05937 15.1375 6.54063 15.5969C7.04375 16.0344 7.83125 16.625 8.3125 16.8875C8.79375 17.1719 9.1875 17.4344 9.1875 17.5C9.1875 17.5656 8.79375 17.8281 8.3125 18.0906C7.83125 18.375 7.04375 18.9656 6.54063 19.4031C6.05937 19.8625 5.35938 20.6719 5.03125 21.2188C4.68125 21.7656 4.2875 22.6406 4.15625 23.1875C4.00312 23.7344 3.89375 24.8719 3.91562 25.7031C3.91562 26.5344 4.1125 27.9781 4.35313 28.875C4.41328 29.0992 4.47343 29.3248 4.53085 29.5401C4.70312 30.1861 4.85078 30.7398 4.9 30.8875C5.00938 31.2375 4.83438 31.2812 3.10625 31.2812C1.96875 31.3031 1.07188 31.3906 0.853125 31.5656C0.65625 31.7188 0.39375 32.0469 0.2625 32.3094C0.109375 32.5938 0 33.0094 0 33.25C0 33.4906 0.30625 33.9719 0.65625 34.3438L1.3125 35H28.9187C29.9031 33.9719 30.1875 33.4906 30.1875 33.25C30.1875 33.0094 30.0781 32.5938 29.925 32.3094C29.7938 32.0469 29.5312 31.7188 29.3344 31.5656C29.1156 31.3906 28.2188 31.3031 27.0594 31.2812C25.3531 31.2812 25.1781 31.2375 25.2875 30.8875C25.3367 30.7398 25.4844 30.1861 25.6567 29.5401C25.7141 29.3248 25.7742 29.0992 25.8344 28.875C26.075 27.9781 26.2719 26.5344 26.2719 25.7031C26.2938 24.8719 26.1844 23.7344 26.0312 23.1875C25.9 22.6406 25.5063 21.7656 25.1562 21.2188C24.8281 20.6719 24.1281 19.8625 23.6469 19.4031C23.1437 18.9656 22.3562 18.375 21.875 18.0906C21.3938 17.8281 21 17.5656 21 17.5C21 17.4344 21.3938 17.1719 21.875 16.8875C22.3562 16.625 23.1437 16.0344 23.6469 15.575C24.1281 15.1375 24.8281 14.3281 25.1562 13.7812C25.5063 13.2344 25.9 12.3594 26.0312 11.8125C26.1844 11.2656 26.2938 10.1281 26.2719 9.29688C26.2719 8.44375 26.075 7.02187 25.8344 6.125C25.7524 5.81933 25.6704 5.51111 25.5953 5.22894C25.4501 4.68318 25.3308 4.23482 25.2875 4.09063C25.1781 3.7625 25.3531 3.71875 27.125 3.71875C29.05 3.71875 29.1156 3.69687 29.6406 3.0625C29.9469 2.69062 30.1875 2.16562 30.1875 1.85938C30.1875 1.55312 29.9031 1.02812 29.5312 0.65625L28.875 0H1.26875L0.65625 0.634375ZM12.2605 23.5176C11.7462 23.796 11.1399 24.1241 10.5219 24.4562C8.81565 25.3968 7.83127 26.0749 7.74377 26.3593C7.67815 26.5999 7.83127 27.4968 8.09377 28.3281C8.35627 29.1812 8.72815 30.0343 8.92502 30.2531C9.27502 30.6031 9.8219 30.6468 15.0938 30.6468C20.3656 30.6468 20.9125 30.6031 21.2625 30.2531C21.4594 30.0343 21.8313 29.1593 22.0938 28.3281C22.3563 27.4968 22.5094 26.5999 22.4438 26.3593C22.3781 26.0968 21.35 25.3749 19.7531 24.4562C18.3313 23.6468 16.9094 22.8812 16.5594 22.7718C16.2313 22.6406 15.5531 22.5312 15.0281 22.5531C14.525 22.5531 13.8906 22.6624 13.65 22.7718C13.4982 22.8477 12.9659 23.1358 12.2605 23.5176Z" fill="#2E66E5"/>
<path d="M24.911 24.8869L24.9129 24.8849C26.0695 23.6885 27.1637 22.5743 27.9954 21.7426C28.4105 21.3275 28.7647 20.9783 29.0304 20.7229C29.1623 20.5961 29.2794 20.4857 29.3745 20.3996C29.4214 20.3571 29.4712 20.313 29.5194 20.2728C29.5203 20.272 29.5213 20.2712 29.5224 20.2703C29.5512 20.2462 29.6513 20.1625 29.775 20.0894C30.1028 19.8957 30.5957 19.6983 30.9944 19.6185C31.2746 19.5625 31.6223 19.5178 31.8364 19.5042C32.0658 19.4894 32.307 19.5183 32.4448 19.5373C32.6124 19.5604 32.7983 19.5943 32.9738 19.6359C33.3253 19.7136 33.8319 19.886 34.1929 20.0943C34.561 20.3005 34.9871 20.6673 35.2567 20.9694C35.5808 21.3168 35.9102 21.8435 36.0822 22.212C36.2058 22.477 36.3153 22.7573 36.3784 23.1036C36.4363 23.4209 36.4436 23.7343 36.4436 24.0382V24.0552L36.4432 24.0722C36.4379 24.3057 36.422 24.5557 36.3961 24.7795C36.3831 24.8908 36.3658 25.012 36.3421 25.13C36.326 25.21 36.291 25.374 36.2172 25.5513C36.1068 25.8283 35.9133 26.1644 35.8149 26.3284L35.8095 26.3373L35.804 26.3462C35.7097 26.4986 35.5773 26.6447 35.5325 26.6941C35.5298 26.6971 35.5273 26.6998 35.5252 26.7021C35.448 26.7878 35.3505 26.8917 35.2399 27.0074C35.0169 27.2404 34.7147 27.5482 34.3572 27.9069C33.641 28.6253 32.6854 29.5653 31.6606 30.5546M24.911 24.8869L30.6176 29.4766M24.911 24.8869C23.757 26.0851 22.6944 27.1965 21.9123 28.0229C21.5219 28.4355 21.1982 28.7804 20.9672 29.0307C20.8525 29.155 20.7552 29.2618 20.6823 29.3442C20.6468 29.3844 20.6094 29.4274 20.576 29.4678C20.5598 29.4873 20.5364 29.5162 20.5114 29.5495C20.5112 29.5498 20.5108 29.5503 20.5103 29.5509C20.4993 29.5653 20.4246 29.6635 20.3591 29.7945C20.2906 29.9315 20.2502 30.0669 20.2395 30.1027C20.239 30.1044 20.2385 30.1059 20.2382 30.1071C20.2191 30.1703 20.2008 30.2385 20.184 30.3038C20.15 30.4365 20.1113 30.6014 20.0709 30.7834C19.9899 31.1479 19.8943 31.6147 19.8036 32.0994L24.911 24.8869ZM31.6606 30.5546C31.6602 30.555 31.6598 30.5554 31.6594 30.5557L30.6176 29.4766M31.6606 30.5546C31.661 30.5542 31.6613 30.5539 31.6617 30.5535L30.6176 29.4766M31.6606 30.5546C29.6292 32.5241 27.6827 34.3911 27.3409 34.7149L27.34 34.7157C27.1543 34.8914 26.9584 35.0648 26.7886 35.2061C26.7042 35.2764 26.6179 35.3456 26.5371 35.4062L26.5364 35.4067C26.4838 35.4461 26.3453 35.5499 26.1855 35.6298L26.1855 35.6298M30.6176 29.4766C28.587 31.4453 26.6447 33.3082 26.3092 33.626C25.9826 33.935 25.6206 34.2352 25.5147 34.2881M26.1855 35.6298C26.2012 35.6219 26.2171 35.6136 26.2329 35.605L25.5147 34.2881M26.1855 35.6298C26.042 35.7015 25.9086 35.7408 25.8744 35.7508C25.8725 35.7514 25.8708 35.7519 25.8695 35.7523C25.7989 35.7733 25.721 35.7938 25.6424 35.8132C25.4828 35.8528 25.264 35.9022 24.9779 35.9635C24.4026 36.0867 23.509 36.2675 22.1737 36.5284L21.6807 36.6247L21.2292 36.4047L20.8874 36.2382M26.1855 35.6298L25.5147 34.2881M25.5147 34.2881C25.4175 34.3411 24.5523 34.5353 21.8861 35.0562M21.5418 34.8885L21.8861 35.0562M21.5418 34.8885C21.3034 34.7737 21.1533 34.6236 21.0651 34.4117L21.8861 35.0562M21.5418 34.8885L20.8848 36.237L20.8874 36.2382M21.5418 34.8885L20.8911 36.24C20.8899 36.2394 20.8887 36.2388 20.8874 36.2382M21.8861 35.0562L20.8874 36.2382" fill="#2E66E5" stroke="#D2E2FF" stroke-width="3"/>
</svg>
