<svg width="37" height="33" viewBox="0 0 37 33" fill="none" xmlns="http://www.w3.org/2000/svg">
<mask id="mask0_239_3040" style="mask-type:alpha" maskUnits="userSpaceOnUse" x="0" y="0" width="37" height="33">
<path d="M16.4667 0.432493C16.7082 0.315396 17.0888 0.169026 17.3083 0.110477C17.5279 0.051929 17.9451 0.000699164 18.2232 0.000699164C18.5086 -0.00661938 18.9331 0.0446104 19.1746 0.103159C19.4161 0.169026 19.8113 0.315396 20.0528 0.432493C20.2943 0.556908 21.0408 1.06921 21.7068 1.58882C22.3728 2.10112 23.2291 2.76711 23.6096 3.06717C23.9902 3.36723 24.7733 4.03322 25.3587 4.53819C25.9442 5.04317 26.8956 5.9214 27.4811 6.48493C28.0666 7.04845 28.9961 7.99986 29.545 8.59999C30.0938 9.20011 30.9282 10.1515 31.3965 10.715C31.8722 11.2786 32.6553 12.2666 33.1384 12.9106C33.6214 13.5546 34.485 14.7915 35.0631 15.6551C35.634 16.5186 36.1975 17.4261 36.3146 17.6677C36.4902 18.0482 36.5195 18.1946 36.5195 18.7654C36.5195 19.3143 36.4902 19.49 36.3366 19.8266C36.2341 20.0462 35.9999 20.3902 35.8243 20.5804C35.6267 20.7927 35.3046 21.0269 35.0192 21.1659C34.5518 21.3996 34.529 21.4001 32.0702 21.451L32.0552 21.4513V23.3615C32.0479 24.4154 32.004 25.6888 31.9601 26.1938C31.9088 26.6987 31.821 27.4891 31.7552 27.9502C31.6966 28.4113 31.5941 29.0041 31.5283 29.2675C31.4697 29.531 31.2868 29.9921 31.1331 30.2921C30.9794 30.5922 30.7232 30.9947 30.5769 31.1777C30.4232 31.3606 30.1158 31.668 29.8962 31.8583C29.6767 32.0413 29.2815 32.3121 29.018 32.4511C28.7545 32.5902 28.2788 32.7658 27.9568 32.8536C27.4153 32.9927 27.1591 33 21.6263 33H14.8932H12.0244C9.36042 33 9.10427 32.9927 8.56269 32.8536C8.24068 32.7658 7.76497 32.5902 7.5015 32.4511C7.23804 32.3121 6.84284 32.0413 6.62328 31.8583C6.40372 31.668 6.09634 31.3606 5.94266 31.1777C5.79628 30.9947 5.55477 30.6288 5.41572 30.3653C5.27667 30.1019 5.11566 29.7286 5.05711 29.5237C4.99124 29.3261 4.88147 28.6967 4.80096 28.1332C4.72046 27.5696 4.618 26.728 4.57409 26.2669C4.53018 25.8059 4.48627 24.5324 4.46431 21.4513L3.22016 21.4221C2.07115 21.4001 1.94673 21.3855 1.57349 21.2098C1.35393 21.1074 1.00996 20.8805 0.819677 20.7049C0.607439 20.5072 0.373246 20.1852 0.234193 19.8998C0.0219556 19.4753 0 19.3582 0 18.7654C0 18.2092 0.0292742 18.0409 0.190282 17.7043C0.292742 17.4847 0.826995 16.6138 1.3832 15.7648C1.93941 14.9159 2.81764 13.6644 3.32994 12.9838C3.84223 12.3032 4.64727 11.2786 5.12298 10.715C5.59137 10.1515 6.42568 9.20011 6.97457 8.59999C7.52346 7.99986 8.45292 7.04845 9.0384 6.48493C9.62388 5.9214 10.5753 5.04317 11.1608 4.53819C11.7463 4.03322 12.5293 3.36723 12.9099 3.06717C13.2905 2.76711 14.1467 2.10112 14.8127 1.58882C15.4787 1.06921 16.2252 0.556908 16.4667 0.432493Z" fill="#4D83EC"/>
</mask>
<g mask="url(#mask0_239_3040)">
<path d="M16.4667 0.432493C16.7082 0.315396 17.0888 0.169026 17.3083 0.110477C17.5279 0.051929 17.9451 0.000699164 18.2232 0.000699164C18.5086 -0.00661938 18.9331 0.0446104 19.1746 0.103159C19.4161 0.169026 19.8113 0.315396 20.0528 0.432493C20.2943 0.556908 21.0408 1.06921 21.7068 1.58882C22.3728 2.10112 23.2291 2.76711 23.6096 3.06717C23.9902 3.36723 24.7733 4.03322 25.3587 4.53819C25.9442 5.04317 26.8956 5.9214 27.4811 6.48493C28.0666 7.04845 28.9961 7.99986 29.545 8.59999C30.0938 9.20011 30.9282 10.1515 31.3965 10.715C31.8722 11.2786 32.6553 12.2666 33.1384 12.9106C33.6214 13.5546 34.485 14.7915 35.0631 15.6551C35.634 16.5186 36.1975 17.4261 36.3146 17.6677C36.4902 18.0482 36.5195 18.1946 36.5195 18.7654C36.5195 19.3143 36.4902 19.49 36.3366 19.8266C36.2341 20.0462 35.9999 20.3902 35.8243 20.5804C35.6267 20.7927 35.3046 21.0269 35.0192 21.1659C34.5518 21.3996 34.529 21.4001 32.0702 21.451L32.0552 21.4513V23.3615C32.0479 24.4154 32.004 25.6888 31.9601 26.1938C31.9088 26.6987 31.821 27.4891 31.7552 27.9502C31.6966 28.4113 31.5941 29.0041 31.5283 29.2675C31.4697 29.531 31.2868 29.9921 31.1331 30.2921C30.9794 30.5922 30.7232 30.9947 30.5769 31.1777C30.4232 31.3606 30.1158 31.668 29.8962 31.8583C29.6767 32.0413 29.2815 32.3121 29.018 32.4511C28.7545 32.5902 28.2788 32.7658 27.9568 32.8536C27.4153 32.9927 27.1591 33 21.6263 33H14.8932H12.0244C9.36042 33 9.10427 32.9927 8.56269 32.8536C8.24068 32.7658 7.76497 32.5902 7.5015 32.4511C7.23804 32.3121 6.84284 32.0413 6.62328 31.8583C6.40372 31.668 6.09634 31.3606 5.94266 31.1777C5.79628 30.9947 5.55477 30.6288 5.41572 30.3653C5.27667 30.1019 5.11566 29.7286 5.05711 29.5237C4.99124 29.3261 4.88147 28.6967 4.80096 28.1332C4.72046 27.5696 4.618 26.728 4.57409 26.2669C4.53018 25.8059 4.48627 24.5324 4.46431 21.4513L3.22016 21.4221C2.07115 21.4001 1.94673 21.3855 1.57349 21.2098C1.35393 21.1074 1.00996 20.8805 0.819677 20.7049C0.607439 20.5072 0.373246 20.1852 0.234193 19.8998C0.0219556 19.4753 0 19.3582 0 18.7654C0 18.2092 0.0292742 18.0409 0.190282 17.7043C0.292742 17.4847 0.826995 16.6138 1.3832 15.7648C1.93941 14.9159 2.81764 13.6644 3.32994 12.9838C3.84223 12.3032 4.64727 11.2786 5.12298 10.715C5.59137 10.1515 6.42568 9.20011 6.97457 8.59999C7.52346 7.99986 8.45292 7.04845 9.0384 6.48493C9.62388 5.9214 10.5753 5.04317 11.1608 4.53819C11.7463 4.03322 12.5293 3.36723 12.9099 3.06717C13.2905 2.76711 14.1467 2.10112 14.8127 1.58882C15.4787 1.06921 16.2252 0.556908 16.4667 0.432493Z" fill="#4D83EC"/>
<path d="M23.9427 26.1983C23.9427 29.3363 21.3989 31.8801 18.2609 31.8801C15.1229 31.8801 12.5791 29.3363 12.5791 26.1983C12.5791 23.0603 15.1229 17.8181 18.2609 17.8181C21.3989 17.8181 23.9427 23.0603 23.9427 26.1983Z" fill="#F5F5F5"/>
<path d="M24.3346 23.2115C18.6439 23.2115 18.6438 29.7777 24.3346 30.106V23.2115Z" fill="#B8DDFF"/>
<path d="M11.8523 20.9132C17.1052 20.9132 17.1053 27.4794 11.8523 27.8077V20.9132Z" fill="#B8DDFF"/>
<path d="M15.7942 32.7813C15.9252 28.7771 21.0181 28.9436 21.1417 32.9562L15.7942 32.7813Z" fill="#B8DDFF"/>
<path fill-rule="evenodd" clip-rule="evenodd" d="M19.6335 15.7826C19.6335 15.8233 19.6319 15.8636 19.6285 15.9034C23.2359 16.55 25.9736 22.4025 25.9736 26.1959C25.9736 30.4569 22.5193 33.9112 18.2583 33.9112C13.9972 33.9112 10.543 30.4569 10.543 26.1959C10.543 22.444 13.221 16.6192 16.7698 15.9256C16.7651 15.8785 16.7627 15.8308 16.7627 15.7826C16.7627 14.9898 17.4054 14.3472 18.1981 14.3472C18.9909 14.3472 19.6335 14.9898 19.6335 15.7826ZM18.2588 31.8798C21.3968 31.8798 23.9407 29.336 23.9407 26.198C23.9407 23.06 21.3968 17.8177 18.2588 17.8177C15.1209 17.8177 12.577 23.06 12.577 26.198C12.577 29.336 15.1209 31.8798 18.2588 31.8798Z" fill="#4D83EC"/>
</g>
</svg>
