<svg width="28" height="18" viewBox="0 0 28 18" fill="none" xmlns="http://www.w3.org/2000/svg">
<path d="M7.84797 0.422204C8.05291 0.291791 8.36962 0.142748 8.54661 0.0775412C8.74223 0.0030195 9.04032 -0.0156109 9.29183 0.0123347C9.52471 0.0402803 9.86006 0.142748 10.037 0.2359C10.214 0.329052 10.4749 0.524671 10.6053 0.673714C10.745 0.813443 10.9313 1.08358 11.0151 1.26057C11.1083 1.43756 11.2014 1.80085 11.2201 2.05237C11.2573 2.3784 11.2108 2.66717 11.0803 3.03046C10.9779 3.30992 10.7171 4.01787 10.5121 4.59542C10.2979 5.16364 10.1302 5.6853 10.1302 5.73187C10.1302 5.79708 12.6919 5.82502 17.6289 5.82502C25.0904 5.82502 25.1277 5.82502 25.6586 6.02996C26.0406 6.16969 26.3573 6.38394 26.7206 6.74723C27.0932 7.11984 27.2981 7.42724 27.4472 7.82779C27.5869 8.19109 27.6614 8.59164 27.6614 8.9922C27.6614 9.40206 27.5962 9.78399 27.4565 10.1566C27.2981 10.5571 27.0932 10.8646 26.7206 11.2278C26.3666 11.5818 26.0313 11.8147 25.1277 12.1594H17.6289C13.5023 12.1594 10.1302 12.1873 10.1302 12.2339C10.1302 12.2711 10.2513 12.6531 10.4003 13.0909C10.5494 13.5287 10.8009 14.2273 10.9592 14.6558C11.1176 15.075 11.248 15.578 11.248 15.7737C11.2387 15.96 11.1921 16.2674 11.1269 16.4444C11.0617 16.6307 10.9034 16.9288 10.7543 17.1244C10.6146 17.3107 10.3631 17.5529 10.1954 17.6553C10.037 17.7578 9.72964 17.8882 9.52471 17.9441C9.25457 18.0186 9.031 18.0186 8.68634 17.9441C8.38825 17.8696 7.89455 17.6181 7.33564 17.2362C6.85124 16.9101 6.09671 16.3605 5.6589 16.0159C5.22108 15.6712 4.26162 14.7769 3.5164 14.0317C2.77118 13.2865 1.9235 12.3364 1.63473 11.9265C1.34596 11.5166 0.889512 10.8273 0.628686 10.3895C0.377176 9.95166 0.107035 9.44864 0.0511436 9.27165C-0.0420084 8.98288 -0.023378 8.88041 0.237448 8.34013C0.395806 8.00478 0.768415 7.36203 1.0665 6.89627C1.3739 6.43983 1.93282 5.6853 2.31474 5.21954C2.70598 4.75378 3.47914 3.94335 4.03805 3.41239C4.59696 2.88142 5.59369 2.03373 6.26439 1.54003C6.93508 1.04632 7.64304 0.543302 7.84797 0.422204Z" fill="#4F85EB"/>
</svg>
