<svg width="20" height="20" viewBox="0 0 20 20" fill="none" xmlns="http://www.w3.org/2000/svg">
<path fill-rule="evenodd" clip-rule="evenodd" d="M9.47753 0.0360966C9.30226 0.0673956 9.02057 0.142513 8.85155 0.198852C8.67628 0.24893 8.31321 0.417945 8.04403 0.55566C7.74982 0.712156 7.36172 0.987587 7.11132 1.22546C6.87345 1.45081 6.54168 1.8264 6.38519 2.07053C6.22243 2.30841 6.02212 2.67774 5.947 2.88431C5.86562 3.09088 5.7592 3.47899 5.69661 3.74816L5.59645 4.23017C2.16608 4.23643 1.46498 4.26147 1.33978 4.31154C1.23336 4.35536 1.08939 4.43048 1.02053 4.48056C0.945414 4.53064 0.826477 4.67461 0.75136 4.79355C0.669982 4.93752 0.619904 5.11906 0.619904 5.31311C0.619904 5.47587 0.669982 5.71374 0.73258 5.83894C0.788918 5.96413 0.951673 6.13941 1.08313 6.22705C1.31474 6.37728 1.38986 6.3898 2.13478 6.40232L2.93603 6.4211C2.97359 12.1488 3.01115 13.3257 3.08627 14.152C3.14261 14.7717 3.24276 15.6794 3.31162 16.1739C3.38048 16.6621 3.49941 17.238 3.58079 17.4571C3.65591 17.67 3.81867 18.008 3.9376 18.2083C4.05654 18.4149 4.33823 18.7529 4.56358 18.9658C4.81397 19.2036 5.152 19.4415 5.43996 19.5855C5.69661 19.7169 6.12227 19.8609 6.37893 19.9172C6.77955 19.9986 7.39927 20.0111 10.4791 19.9924L10.4814 19.9923C14.1035 19.9736 14.1099 19.9735 14.5167 19.8296C14.742 19.7482 15.0801 19.5917 15.2679 19.4853C15.4556 19.3789 15.7999 19.1097 16.0253 18.8844C16.2506 18.659 16.5198 18.3335 16.62 18.1582C16.7139 17.9892 16.8641 17.6637 16.9455 17.4384C17.0394 17.1817 17.1458 16.5995 17.2397 15.8421C17.3211 15.1911 17.4337 13.9767 17.4901 13.1504C17.5652 12.0361 17.584 10.972 17.5715 9.0377L17.5527 6.43362C19.1239 6.3898 19.2115 6.37728 19.4369 6.22705C19.5683 6.13941 19.7311 5.96413 19.7874 5.83894C19.85 5.71374 19.9001 5.48213 19.9001 5.32563C19.9001 5.16914 19.8626 4.96882 19.8125 4.87493C19.7624 4.77477 19.6435 4.62453 19.5433 4.5369C19.4494 4.443 19.2679 4.34284 19.1489 4.29903C18.9987 4.24895 18.2788 4.23017 16.9267 4.23017H14.9236C14.7545 3.47899 14.6294 3.09088 14.548 2.88431C14.4603 2.67774 14.2976 2.35223 14.1849 2.16443C14.0785 1.97664 13.7467 1.58227 13.4525 1.29432C13.0268 0.881171 12.8077 0.718415 12.357 0.499322C12.0503 0.342827 11.6372 0.180072 11.4494 0.123734C11.2616 0.0736554 10.8109 0.0173172 10.4478 0.00479756C10.0847 -0.00772205 9.64655 0.00479756 9.47753 0.0360966ZM8.95171 2.49626C9.1395 2.38358 9.44623 2.25212 9.63402 2.20204C9.82182 2.15197 10.091 2.10815 10.2287 2.10815C10.3664 2.10189 10.6481 2.14571 10.8547 2.19579C11.0613 2.25212 11.3805 2.38358 11.5683 2.49626C11.7561 2.60893 12.0065 2.82177 12.1317 2.97826C12.2569 3.13476 12.4196 3.38515 12.4948 3.54164C12.5699 3.69814 12.645 3.91723 12.7013 4.23022H7.81868L7.85624 3.99235C7.87502 3.86715 7.9564 3.63554 8.03777 3.47905C8.11915 3.32255 8.28191 3.08468 8.40084 2.94696C8.51978 2.80925 8.77017 2.60893 8.95171 2.49626ZM7.01743 8.51193C7.09254 8.43681 7.20522 8.36169 7.2553 8.34292C7.30538 8.32413 7.46187 8.30536 7.59959 8.30536C7.76234 8.2991 7.9251 8.34292 8.06907 8.44307C8.18801 8.51819 8.33198 8.66842 8.38206 8.76858C8.46344 8.93134 8.47596 9.43838 8.47596 12.1489C8.47596 15.2287 8.4697 15.3476 8.35076 15.548C8.27565 15.6669 8.10663 15.8109 7.94388 15.886C7.74356 15.9799 7.59959 16.0049 7.44309 15.9736C7.32416 15.9548 7.1614 15.8922 7.08628 15.8422C7.00491 15.7921 6.88597 15.6544 6.81711 15.548C6.69818 15.3476 6.69192 15.2287 6.69192 12.1677C6.69192 9.55732 6.7107 8.95638 6.77955 8.81866C6.82963 8.7185 6.93605 8.58079 7.01743 8.51193ZM12.4509 8.43681C12.332 8.51819 12.188 8.66842 12.1379 8.76858C12.0566 8.93134 12.0441 9.43838 12.0441 12.1489C12.0441 15.3038 12.0441 15.3414 12.1755 15.5605C12.2506 15.6794 12.4196 15.8296 12.5511 15.8985C12.7264 15.9799 12.8641 15.9987 13.0456 15.9736C13.1833 15.9486 13.3774 15.8672 13.4775 15.7921C13.5777 15.717 13.7029 15.5605 13.7467 15.4541C13.8093 15.2913 13.8281 14.5589 13.8281 12.1176C13.8281 9.55106 13.8093 8.95638 13.7405 8.8124C13.6904 8.7185 13.5777 8.57453 13.4838 8.48689C13.3586 8.37421 13.2334 8.32413 12.9955 8.31162C12.7326 8.29284 12.6262 8.31788 12.4509 8.43681Z" fill="#CBC8C8"/>
</svg>
