<svg width="194" height="209" viewBox="0 0 194 209" fill="none" xmlns="http://www.w3.org/2000/svg">
<mask id="mask0_265_8568" style="mask-type:alpha" maskUnits="userSpaceOnUse" x="97" y="147" width="42" height="33">
<path d="M128.208 154.835C121.682 148.842 113.895 163.603 106.675 152.795C101.325 147.919 92.493 141.867 99.961 156.671C109.296 175.176 116.804 161.419 122.304 162.45C127.804 163.481 128.558 171.796 129.016 176.412C129.474 181.027 134.506 179.973 137.31 176.335C140.114 172.696 134.733 160.827 128.208 154.835Z" fill="#1547FA"/>
</mask>
<g mask="url(#mask0_265_8568)">
<path d="M128.208 154.835C121.682 148.842 113.895 163.603 106.675 152.795C101.325 147.919 92.493 141.867 99.961 156.671C109.296 175.176 116.804 161.419 122.304 162.45C127.804 163.481 128.558 171.796 129.016 176.412C129.474 181.027 134.506 179.973 137.31 176.335C140.114 172.696 134.733 160.827 128.208 154.835Z" fill="#3C6AC3"/>
<path d="M129.555 151.654C123.03 145.662 115.243 160.422 108.022 149.615C102.673 144.739 93.8406 138.687 101.309 153.491C110.644 171.996 118.151 158.238 123.652 159.27C129.152 160.301 129.906 168.616 130.364 173.231C130.821 177.847 135.853 176.793 138.658 173.154C141.462 169.516 136.081 157.647 129.555 151.654Z" fill="#4D83EC"/>
</g>
<path d="M114.093 149.227C87.4148 165.247 70.6382 175.563 41.4391 129.082C12.1145 80.9783 32.3912 68.1765 59.9813 52.5823C85.677 37.7468 115.914 39.4724 136.097 74.4309C153.293 104.215 141.957 131.794 114.093 149.227Z" fill="#4D83EC"/>
<mask id="mask1_265_8568" style="mask-type:alpha" maskUnits="userSpaceOnUse" x="58" y="56" width="75" height="80">
<ellipse cx="95.8624" cy="95.8267" rx="40.9677" ry="35.512" transform="rotate(60 95.8624 95.8267)" fill="white"/>
</mask>
<g mask="url(#mask1_265_8568)">
<ellipse cx="95.8624" cy="95.8267" rx="40.9677" ry="35.512" transform="rotate(60 95.8624 95.8267)" fill="#E9EEFF"/>
<ellipse cx="96.5707" cy="92.1553" rx="38.1424" ry="33.0629" transform="rotate(60 96.5707 92.1553)" fill="white"/>
</g>
<path d="M104.004 104.958L112.919 120.399" stroke="#4D83EC" stroke-width="3.57739" stroke-linecap="round"/>
<path d="M82.3242 67.3992L91.2393 82.8406" stroke="#4D83EC" stroke-width="3.57739" stroke-linecap="round"/>
<path d="M75.0039 62.2495L77.627 66.7928" stroke="#B8C7FF" stroke-width="0.938661" stroke-linecap="round"/>
<path d="M111.762 126.507L114.385 131.05" stroke="#B8C7FF" stroke-width="0.938661" stroke-linecap="round"/>
<path d="M124.77 79.4312L120.538 81.8743" stroke="#B8C7FF" stroke-width="0.938661" stroke-linecap="round"/>
<path d="M71.3477 109.692L67.1159 112.135" stroke="#B8C7FF" stroke-width="0.938661" stroke-linecap="round"/>
<path d="M92.8244 96.207L93.5939 92.1155C93.6744 91.6875 94.2439 91.5904 94.4616 91.9676L97.6202 97.4383C97.8379 97.8155 97.4691 98.2601 97.0582 98.1158L93.1301 96.7365C92.9114 96.6597 92.7815 96.4348 92.8244 96.207Z" fill="#4D83EC"/>
<path d="M38.7109 66.5432C48.2192 110.19 60.1212 130.71 92.9216 160.439C56.5161 178.26 1.76556 92.7096 38.7109 66.5432Z" fill="white"/>
<path d="M92.9206 160.439C57.9359 129.462 47.8046 108.074 38.7099 66.5437C39.5861 65.7714 40.6406 64.9242 42.8242 63.1587C49.8955 107.356 63.6161 128.702 97.7635 158.316C95.9035 159.317 94.7099 159.743 92.9206 160.439Z" fill="#84A7EA"/>
<path d="M32.2891 72.9431L38.5174 85.1691L33.2796 87.8756L28.5135 79.8346C28.3011 79.6046 30.5041 74.815 32.2891 72.9431Z" fill="#CFDEFD"/>
<path d="M86.0512 162.555L77.6214 150.192L72.7865 153.541L78.1417 162.578C80.1347 163.11 84.9362 162.862 86.0512 162.555Z" fill="#CFDEFD"/>
<path d="M99.4348 162.268C95.1279 157.965 98.5818 153.104 102.187 149.502C105.792 145.901 111.288 145.167 115.595 149.47C119.902 153.773 120.302 159.977 116.697 163.579C113.092 167.181 103.742 166.571 99.4348 162.268Z" fill="#3C6AC4"/>
<ellipse cx="10.0664" cy="13.1244" rx="10.0664" ry="13.1244" transform="matrix(-0.374292 0.927311 -0.92796 -0.37268 122.672 151.255)" fill="#4D83EC"/>
<ellipse cx="7.79826" cy="10.1536" rx="7.79826" ry="10.1536" transform="matrix(-0.836674 0.547701 0.547869 0.836564 38.543 93.062)" fill="#4D83EC"/>
<path d="M38.9303 58.3574C40.5034 64.2389 45.335 63.9589 50.2567 62.6378C55.1785 61.3166 58.1679 54.1655 56.5948 48.284C55.0217 42.4026 50.1805 40.2704 45.072 41.7323C38.5035 44.2159 36.8905 54.4226 38.9303 58.3574Z" fill="#3C6AC4"/>
<ellipse cx="10.0647" cy="13.1267" rx="10.0647" ry="13.1267" transform="matrix(-0.972163 -0.234306 -0.236043 0.971743 61.3008 44.3071)" fill="#4D83EC"/>
<ellipse cx="7.79831" cy="10.1535" rx="7.79831" ry="10.1535" transform="matrix(-0.866025 0.5 0.5 0.866025 60.5156 128.837)" fill="#4D83EC"/>
<g style="mix-blend-mode:multiply">
<path d="M51.1899 145.796C53.9938 150.652 59.2903 152.843 63.0202 150.69C61.6925 151.289 55.6499 151.063 51.711 144.532C47.7721 138.002 53.5796 132.002 51.5267 134.87C50.0675 136.722 48.3861 140.939 51.1899 145.796Z" fill="#CBC8C8" fill-opacity="0.5"/>
</g>
<path d="M159.391 101.786L141.108 91.4052C140.181 90.8789 139.022 91.5066 138.955 92.5711L137.456 116.315C137.38 117.51 138.709 118.269 139.702 117.598L159.483 104.235C160.37 103.635 160.321 102.314 159.391 101.786Z" fill="#4D83EC"/>
<path d="M122.571 36.5265L123.061 57.5438C123.086 58.6095 121.984 59.3337 121.014 58.889L99.3886 48.9696C98.3005 48.4705 98.2609 46.9408 99.3216 46.3838L120.457 35.2859C121.406 34.7881 122.546 35.4576 122.571 36.5265Z" fill="#4D83EC"/>
<path fill-rule="evenodd" clip-rule="evenodd" d="M88.8985 91.163C88.9183 97.1696 90.1169 98.8166 95.2698 102.147C95.3059 102.17 95.3435 102.199 95.3755 102.228C108.052 113.573 81.528 129.639 77.3112 114.959C77.2947 114.901 77.2837 114.837 77.28 114.777C76.8844 108.474 75.0001 105.799 69.8756 102.034C57.5519 90.2517 84.4484 74.8038 88.8685 90.9405C88.8878 91.0109 88.8983 91.0901 88.8985 91.163ZM79.2015 93.6567C78.4102 94.1136 77.4573 93.9447 77.0732 93.2794C76.6891 92.6142 77.0193 91.7045 77.8106 91.2476C78.602 90.7907 79.5549 90.9597 79.939 91.6249C80.323 92.2901 79.9929 93.1998 79.2015 93.6567ZM87.8182 111.888C88.2023 112.553 89.1552 112.722 89.9466 112.266C90.7379 111.809 91.0681 110.899 90.684 110.234C90.2999 109.568 89.347 109.4 88.5557 109.856C87.7643 110.313 87.4342 111.223 87.8182 111.888Z" fill="#DB7B7B"/>
<g style="mix-blend-mode:multiply">
<path d="M74.8684 104.049C67.6326 98.5696 66.7181 94.4415 69.5547 88.4915C65.1657 93.3271 64.7907 99.0676 73.394 104.9C74.8787 106.578 75.4319 107.593 76.3306 109.514L77.0875 112.149C77.3669 118.605 81.2157 121.767 88.0354 120.501C79.414 118.621 78.1891 115.413 77.6002 108.781L74.8684 104.049Z" fill="#D9D9D9"/>
</g>
<path d="M78.6238 113.337C74.7375 115.581 69.7742 114.254 67.5366 110.378C65.299 106.502 66.6314 101.54 70.5178 99.2967C74.4041 97.0529 79.3674 98.38 81.605 102.256C83.8426 106.131 82.5102 111.093 78.6238 113.337Z" stroke="#D4E2F8" stroke-width="2.02122"/>
<g style="mix-blend-mode:multiply">
<path d="M79.1502 114.253C74.6698 116.84 69.2 115.285 66.6825 110.924C64.165 106.564 65.6653 100.985 70.0335 98.4626C74.4018 95.9406 62.6347 101.274 67.421 110.62C72.2606 118.474 83.5185 111.731 79.1502 114.253Z" fill="#F1F1F1"/>
</g>
<ellipse cx="81.6688" cy="102.243" rx="7.43037" ry="7.33809" transform="rotate(60 81.6688 102.243)" fill="white"/>
<path d="M85.4049 108.709C81.8952 110.736 77.3866 109.497 75.3348 105.943C73.281 102.961 74.6843 99.1154 75.5373 98.0574C76.7273 96.5812 72.8925 99.6656 76.9018 105.556C81.4965 110.874 88.9147 106.683 85.4049 108.709Z" fill="#D8D8D8" style="mix-blend-mode:multiply"/>
</svg>
