<svg width="28" height="30" viewBox="0 0 28 30" fill="none" xmlns="http://www.w3.org/2000/svg">
<path fill-rule="evenodd" clip-rule="evenodd" d="M12.1319 0.0610302C11.9952 0.10009 11.712 0.227032 11.4972 0.334445C11.2823 0.451623 10.9406 0.695744 10.7355 0.891041C10.5402 1.08634 10.2668 1.44764 10.1399 1.71129C10.0129 1.96517 9.75903 2.59012 9.56374 3.09789L9.20244 4.02555L6.78076 5.47075C4.33955 5.08992 3.97825 5.06062 3.55837 5.14851C3.28495 5.19733 2.87483 5.33404 2.66 5.44145C2.44518 5.54886 2.11317 5.78322 1.91788 5.95899C1.72258 6.12499 1.33199 6.66206 1.03904 7.1503C0.755861 7.63854 0.414092 8.27325 0.277384 8.5662C0.0723227 9.00561 0.0234985 9.24973 0.0234985 9.88445C0.0234985 10.4899 0.0723227 10.773 0.24809 11.1539C0.375032 11.4273 0.833979 12.0913 1.2734 12.6479L2.07411 13.6439V16.3781C0.843744 17.9307 0.394562 18.5556 0.287149 18.7704C0.150441 19.0439 0.0723227 19.4149 0.0430282 19.991C0.00396887 20.7429 0.0234985 20.8796 0.257854 21.4069C0.404327 21.7292 0.755861 22.3932 1.03904 22.8717C1.33199 23.3501 1.72258 23.897 1.91788 24.0727C2.11317 24.2387 2.43541 24.4633 2.64047 24.5708C2.83577 24.6684 3.24589 24.8051 3.53884 24.8637C3.95872 24.9516 4.28096 24.9418 5.00356 24.8344C5.51133 24.7563 6.10699 24.6586 6.32181 24.6196C6.68311 24.561 6.81006 24.6196 7.96231 25.2738L9.2122 25.9964C9.82739 27.5881 10.091 28.213 10.1887 28.4181C10.2863 28.6134 10.5402 28.9356 10.7453 29.1309C10.9406 29.3262 11.3214 29.5996 11.5948 29.7461C12.0733 29.9902 12.1221 30 13.8896 30C15.657 30 15.7058 29.9902 16.1843 29.7363C16.4577 29.5996 16.8385 29.3165 17.0436 29.1016C17.2584 28.8966 17.5025 28.5743 17.6002 28.3888C17.6978 28.2033 17.9615 27.5686 18.1958 26.9924C18.5181 26.1917 18.6841 25.8988 18.8696 25.8011C18.938 25.7669 19.0259 25.7206 19.1137 25.6742C19.2016 25.6278 19.2895 25.5814 19.3579 25.5472C19.4946 25.4691 19.934 25.2152 20.3343 24.9809L21.0667 24.5512C22.6584 24.8246 23.381 24.9028 23.7032 24.9028C24.0547 24.9028 24.5039 24.8246 24.8262 24.6977C25.1191 24.5805 25.5585 24.3266 25.7929 24.1216C26.037 23.9067 26.4471 23.3697 26.7401 22.8717C27.0233 22.3932 27.3748 21.7292 27.5213 21.4069C27.7556 20.8796 27.7751 20.7429 27.7361 19.991C27.7068 19.4149 27.6287 19.0439 27.492 18.7704C27.3846 18.5556 26.9354 17.9307 26.496 17.3838L25.705 16.3781V13.6439C26.9354 12.0913 27.3846 11.4664 27.492 11.2515C27.6287 10.9781 27.7068 10.607 27.7361 10.0309C27.7751 9.27903 27.7556 9.14232 27.5213 8.61502C27.3748 8.29278 27.0233 7.63854 26.7401 7.1503C26.4471 6.66206 26.0565 6.12499 25.8612 5.95899C25.6659 5.78322 25.3339 5.54886 25.1191 5.44145C24.9043 5.33404 24.4942 5.19733 24.211 5.14851C23.8009 5.06062 23.4493 5.08015 22.385 5.25592L21.0667 5.46098L18.5669 4.02555C18.0201 2.59012 17.7662 1.96517 17.6393 1.70152C17.5123 1.44764 17.2389 1.08634 17.0338 0.891041C16.8385 0.695744 16.4479 0.422329 16.1843 0.285621C15.7156 0.0317357 15.6179 0.0219709 14.036 0.00244121C13.1279 -0.00732362 12.2686 0.012206 12.1319 0.0610302ZM12.8154 10.6753C12.5225 10.7534 12.0245 10.9682 11.7022 11.1342C11.3898 11.31 10.921 11.6811 10.6574 11.9642C10.3937 12.2377 10.052 12.7454 9.88598 13.0872C9.72974 13.4192 9.54421 13.9758 9.47585 14.3273C9.38797 14.8156 9.38797 15.1281 9.47585 15.6456C9.53444 16.0264 9.71998 16.6025 9.88598 16.9443C10.0422 17.2763 10.4133 17.7939 10.6965 18.0966C11.0089 18.4286 11.4483 18.7606 11.8389 18.9559C12.1905 19.1316 12.8057 19.3367 13.206 19.405C13.8114 19.5125 14.0556 19.5125 14.6219 19.405C14.993 19.3367 15.5886 19.1316 15.9402 18.9559C16.2917 18.7801 16.7799 18.4188 17.0338 18.1649C17.2877 17.911 17.6393 17.413 17.8248 17.0615C18.0103 16.71 18.2154 16.1143 18.2837 15.7432C18.3814 15.2062 18.3911 14.9132 18.3033 14.3762C18.2349 14.0051 18.0591 13.429 17.9127 13.1067C17.7662 12.7845 17.444 12.306 17.2096 12.0424C16.9655 11.7787 16.5749 11.4369 16.3308 11.2709C16.0866 11.1049 15.6472 10.8901 15.3543 10.7925C15.0613 10.6948 14.4852 10.5874 14.0849 10.5679C13.5966 10.5288 13.1767 10.5679 12.8154 10.6753Z" fill="#4F85EB"/>
</svg>
