<svg width="24" height="30" viewBox="0 0 24 30" fill="none" xmlns="http://www.w3.org/2000/svg">
<path d="M1.25558 0.291996C1.44118 0.204651 1.72505 0.084553 1.91066 0.0408808C2.09626 -0.00279139 2.43472 -0.0137094 2.67492 0.0190447C2.91512 0.0517989 3.97417 0.499439 5.0223 1.03442C6.07043 1.55849 7.3806 2.23541 7.91558 2.5302C8.45057 2.8359 9.24758 3.2617 9.66247 3.49098C10.0774 3.72026 11.4094 4.49544 12.6103 5.21603C13.8113 5.93663 15.4054 6.94109 16.1587 7.44332C16.9121 7.95646 17.9711 8.70981 18.5061 9.11378C19.0411 9.51775 19.9036 10.2274 20.4167 10.6751C20.9299 11.1227 21.5413 11.7232 21.7924 12.018C22.0435 12.3128 22.4147 12.8368 22.644 13.1862C22.8624 13.5247 23.1135 14.0924 23.2008 14.4418C23.3209 14.9003 23.3319 15.1842 23.2554 15.5336C23.1899 15.7847 23.0589 16.1778 22.9388 16.407C22.8296 16.6254 22.4257 17.2041 22.0435 17.6735C21.6614 18.1539 20.9299 18.9073 20.4167 19.3549C19.9036 19.8025 18.9974 20.545 18.3969 20.9926C17.7964 21.4403 16.5408 22.3137 15.6128 22.9251C14.6848 23.5474 13.2108 24.4645 12.3374 24.9777C11.4639 25.4908 10.5577 26.0586 10.3176 26.2442C10.0774 26.4298 9.78257 26.5826 9.66247 26.5826C9.54237 26.5826 9.28034 26.7137 9.08381 26.8556C8.8982 27.0085 8.70168 27.1286 8.65801 27.1286C8.60342 27.1286 8.10119 27.3797 7.53345 27.6854C6.96571 27.9911 5.71014 28.6352 4.74935 29.1266C3.19899 29.9017 2.93695 30 2.40197 30C2.07443 30 1.68138 29.9454 1.52853 29.8581C1.37567 29.7816 1.0918 29.596 0.884362 29.4323C0.676919 29.2794 0.39305 28.9082 0 28.0566V15.0095C0 2.11531 0.010918 1.95154 0.229279 1.47114C0.349377 1.19819 0.55682 0.859734 0.687837 0.728718C0.818853 0.586783 1.06997 0.390258 1.25558 0.291996Z" fill="#4D83EC"/>
</svg>
