<svg width="47" height="50" viewBox="0 0 47 50" fill="none" xmlns="http://www.w3.org/2000/svg">
<path fill-rule="evenodd" clip-rule="evenodd" d="M27.5647 4.61494C27.5746 4.49631 27.5797 4.37631 27.5797 4.25511C27.5797 1.90494 25.6745 -0.000244141 23.3243 -0.000244141C20.9742 -0.000244141 19.069 1.90494 19.069 4.25511C19.069 4.39857 19.0761 4.54037 19.0899 4.68018C8.5687 6.73599 0.628906 16.0046 0.628906 27.1277C0.628906 39.7598 10.8693 50.0002 23.5015 50.0002C36.1336 50.0002 46.374 39.7598 46.374 27.1277C46.374 15.8822 38.2585 6.53221 27.5647 4.61494Z" fill="#2E66E5"/>
<circle cx="23.5004" cy="27.1281" r="16.8441" fill="white"/>
<path d="M23.3242 13.1204L23.3242 17.7303" stroke="#B8C7FF" stroke-width="1.86506" stroke-linecap="round"/>
<path d="M23.3242 36.5237L23.3242 41.1337" stroke="#B8C7FF" stroke-width="1.86506" stroke-linecap="round"/>
<path d="M37.5117 27.127L32.9017 27.127" stroke="#B8C7FF" stroke-width="1.86506" stroke-linecap="round"/>
<path d="M14.1055 27.127L9.4955 27.127" stroke="#B8C7FF" stroke-width="1.86506" stroke-linecap="round"/>
</svg>
