<svg width="32" height="32" viewBox="0 0 32 32" fill="none" xmlns="http://www.w3.org/2000/svg">
<path d="M16 32C19.1645 32 22.2579 31.0616 24.8891 29.3035C27.5203 27.5454 29.5711 25.0466 30.7821 22.1229C31.9931 19.1993 32.3099 15.9823 31.6926 12.8786C31.0752 9.77487 29.5513 6.92394 27.3137 4.6863C25.0761 2.44866 22.2251 0.924806 19.1214 0.307443C16.0177 -0.309921 12.8007 0.00693258 9.87706 1.21793C6.95345 2.42894 4.45459 4.4797 2.69649 7.11088C0.938384 9.74207 0 12.8355 0 16C0 20.2435 1.68571 24.3131 4.68629 27.3137C7.68687 30.3143 11.7565 32 16 32ZM9.68 22.0533V11.3867C9.67287 11.1196 9.71934 10.8538 9.81666 10.6049C9.91397 10.3561 10.0602 10.1293 10.2466 9.93786C10.433 9.74645 10.6559 9.59435 10.9021 9.49052C11.1483 9.38669 11.4128 9.33325 11.68 9.33334H12.32C12.8504 9.33334 13.3591 9.54405 13.7342 9.91913C14.1093 10.2942 14.32 10.8029 14.32 11.3333V22C14.32 22.5304 14.1093 23.0391 13.7342 23.4142C13.3591 23.7893 12.8504 24 12.32 24H11.68C11.1587 24.0002 10.6579 23.7968 10.2843 23.4332C9.91074 23.0696 9.6939 22.5745 9.68 22.0533ZM17.68 11.3867C17.6656 10.8584 17.8609 10.346 18.2231 9.96123C18.5854 9.57649 19.0852 9.35076 19.6133 9.33334H20.32C20.8504 9.33334 21.3591 9.54405 21.7342 9.91913C22.1093 10.2942 22.32 10.8029 22.32 11.3333V22C22.32 22.5304 22.1093 23.0391 21.7342 23.4142C21.3591 23.7893 20.8504 24 20.32 24H19.6133C19.0829 24 18.5742 23.7893 18.1991 23.4142C17.824 23.0391 17.6133 22.5304 17.6133 22L17.68 11.3867Z" fill="#4D83EC"/>
</svg>
