<svg width="13" height="14" viewBox="0 0 13 14" fill="none" xmlns="http://www.w3.org/2000/svg">
<path fill-rule="evenodd" clip-rule="evenodd" d="M7.54113 1.29211C7.5439 1.25894 7.54532 1.22539 7.54532 1.1915C7.54532 0.533453 7.01186 0 6.35382 0C5.69577 0 5.16232 0.533453 5.16232 1.1915C5.16232 1.23173 5.16431 1.2715 5.16821 1.31071C2.2227 1.88668 0 4.48169 0 7.59583C0 11.1328 2.86731 14.0001 6.40431 14.0001C9.94132 14.0001 12.8086 11.1328 12.8086 7.59583C12.8086 4.44679 10.5358 1.82859 7.54113 1.29211Z" fill="#2E66E5"/>
<circle cx="6.41167" cy="7.59697" r="4.71636" fill="white"/>
<path fill-rule="evenodd" clip-rule="evenodd" d="M6.60609 5.05438C6.48924 4.85199 6.19711 4.85199 6.08026 5.05438L4.41222 7.94351C4.29537 8.1459 4.44143 8.39889 4.67513 8.39889H5.86147L5.87101 10.9337C5.872 11.1985 6.08742 11.4123 6.35216 11.4113C6.6169 11.4103 6.8307 11.1949 6.82971 10.9301L6.82019 8.39889H8.01122C8.24492 8.39889 8.39098 8.14591 8.27413 7.94351L6.60609 5.05438Z" fill="#2E66E5"/>
</svg>
