<svg width="68" height="68" viewBox="0 0 68 68" fill="none" xmlns="http://www.w3.org/2000/svg">
<path d="M0 32.2C0 20.8102 0 15.1153 2.25173 10.7805C4.14924 7.12765 7.12765 4.14924 10.7805 2.25173C15.1153 0 20.8102 0 32.2 0H35.8C47.1898 0 52.8847 0 57.2195 2.25173C60.8724 4.14924 63.8508 7.12765 65.7483 10.7805C68 15.1153 68 20.8102 68 32.2V35.8C68 47.1898 68 52.8847 65.7483 57.2195C63.8508 60.8724 60.8724 63.8508 57.2195 65.7483C52.8847 68 47.1898 68 35.8 68H32.2C20.8102 68 15.1153 68 10.7805 65.7483C7.12765 63.8508 4.14924 60.8724 2.25173 57.2195C0 52.8847 0 47.1898 0 35.8V32.2Z" fill="#4D83EC"/>
<path d="M30.0687 11.0806C29.5524 11.1119 28.3166 11.1901 27.331 11.284C26.3454 11.3622 24.828 11.5812 23.9676 11.7377C23.1071 11.9098 21.84 12.207 21.1517 12.3947C20.4633 12.5824 19.4465 12.9266 18.8833 13.1456C18.3201 13.3803 17.3658 13.834 16.7714 14.1781C16.13 14.5223 15.2226 15.2419 14.5812 15.8833C13.9555 16.5091 13.2672 17.4164 12.9856 17.9326C12.7196 18.4489 12.3911 19.2937 12.2503 19.8099C12.1095 20.3262 12 21.3743 12 22.1565C12 22.97 12.1408 24.1276 12.2972 24.8942C12.4693 25.6294 12.7978 26.7558 13.0169 27.3972C13.2515 28.0386 13.799 29.2744 14.2214 30.1349C14.6438 30.9953 15.3478 32.2781 15.8015 32.9977C16.2551 33.7017 16.6462 34.2805 16.6932 34.2805C16.7401 34.2961 17.1938 33.7486 17.7257 33.0759C18.2419 32.4032 19.1962 31.402 19.8376 30.8545C20.479 30.2913 21.4176 29.5717 21.9339 29.2432L22.8725 28.6487C22.3406 26.5211 22.1059 25.2853 21.9964 24.5031C21.8869 23.6739 21.8556 22.4224 21.9026 21.4525C21.9651 20.5452 22.1372 19.2311 22.325 18.5115C22.497 17.8075 22.763 17.0409 22.9038 16.8219C23.0602 16.5873 23.3731 16.3057 23.6077 16.1962C23.858 16.071 24.343 15.9772 24.7028 15.9772C25.0939 15.9772 25.5789 16.1023 25.8761 16.29C26.1577 16.4621 26.5019 16.8219 26.627 17.0722C26.7522 17.3382 26.8617 17.8075 26.8617 18.136C26.846 18.4489 26.7522 19.1372 26.627 19.6535C26.5019 20.1697 26.3924 21.1083 26.3924 21.7341C26.3924 22.7353 26.4236 22.8448 26.6583 22.7822C26.8147 22.751 27.6439 22.6414 28.5043 22.5632C29.3647 22.485 30.7414 22.3599 31.5548 22.3129C32.3683 22.2504 34.0578 22.2816 35.3094 22.3911C36.5609 22.485 38.1409 22.6258 38.8292 22.7197C39.5176 22.7979 40.112 22.8292 40.159 22.7822C40.2059 22.7197 40.1433 21.9688 40.0494 21.0927C39.9399 20.2167 39.7522 19.1216 39.6584 18.6679C39.4706 17.8857 39.4706 17.8075 39.8461 17.1348C40.0964 16.6968 40.4249 16.3526 40.7378 16.2118C41.0194 16.0867 41.52 15.9772 41.8328 15.9772C42.1927 15.9772 42.6463 16.1023 42.9749 16.337C43.2721 16.5247 43.6006 16.8689 43.7101 17.0722C43.8196 17.2912 44.023 17.917 44.1794 18.4802C44.3984 19.278 44.461 20.0759 44.461 22.3129C44.461 24.7064 44.3984 25.3322 44.1012 26.5368C43.9135 27.3033 43.7101 28.0542 43.6632 28.1794C43.6162 28.3358 43.8978 28.6018 44.5705 29.0085C45.1181 29.3214 46.1349 30.0879 46.8389 30.6824C47.5585 31.2925 48.5754 32.3406 49.1072 33.029C49.7174 33.8112 50.1554 34.2336 50.2492 34.1397C50.3431 34.0615 50.7655 33.4201 51.2192 32.7005C51.6572 31.9808 52.4081 30.5729 52.8774 29.5873C53.3467 28.6018 53.8786 27.3346 54.0664 26.7714C54.2384 26.2083 54.4887 25.2383 54.6295 24.6282C54.7547 24.0025 54.8642 22.9387 54.8642 22.2816C54.8642 21.609 54.7547 20.6077 54.6295 20.0446C54.4887 19.4814 54.1602 18.574 53.8786 18.0109C53.5501 17.3382 53.0026 16.6186 52.283 15.8989C51.6103 15.2263 50.7029 14.5223 49.9364 14.0999C49.248 13.7244 48.2312 13.2395 47.668 13.0205C47.1048 12.8171 46.0567 12.4886 45.3214 12.3009C44.5862 12.0975 43.1156 11.8003 42.0362 11.6125C40.9568 11.4404 38.8292 11.2214 37.2961 11.1276C35.7787 11.0493 33.7293 10.9868 32.7594 11.0024C31.8051 11.0181 30.5849 11.0493 30.0687 11.0806Z" fill="white"/>
<path fill-rule="evenodd" clip-rule="evenodd" d="M29.6776 30.9796C28.9423 31.1361 27.9567 31.3864 27.4874 31.5428C27.0181 31.6992 26.0013 32.1373 25.2191 32.5284C24.0614 33.1228 23.5452 33.5139 22.325 34.7498C21.136 35.9387 20.698 36.5176 20.1035 37.6439C19.7124 38.4105 19.2275 39.5525 19.0554 40.1469C18.8677 40.7414 18.6174 41.9303 18.4922 42.7751C18.3671 43.6042 18.2575 45.0122 18.2575 45.8882C18.2575 46.7799 18.3671 48.1722 18.4922 48.9857C18.633 49.7992 18.8833 50.9568 19.0554 51.567C19.2431 52.1771 19.7124 53.2878 20.1192 54.0543C20.5885 54.946 21.2299 55.8534 21.9339 56.6043C22.5283 57.2613 23.4826 58.0905 24.0458 58.4503C24.609 58.8257 25.485 59.3107 26.0013 59.5453C26.5175 59.7643 27.5344 60.1242 28.2696 60.3432C29.1457 60.5935 30.3815 60.7812 31.8677 60.9063C33.7606 61.0471 34.4489 61.0315 36.0133 60.8438C37.1084 60.6873 38.5007 60.3901 39.3768 60.0929C40.1902 59.8269 41.3948 59.3107 42.0362 58.9509C42.7558 58.5441 43.6945 57.8089 44.4767 57.0423C45.2901 56.2288 46.0098 55.3528 46.4791 54.5393C46.8702 53.851 47.4177 52.6464 47.668 51.8798C47.9183 51.1133 48.2468 49.7679 48.372 48.9075C48.4971 48.0471 48.6066 46.6235 48.6066 45.7318C48.6066 44.8557 48.4659 43.3539 48.2938 42.384C48.1373 41.4141 47.8557 40.1939 47.668 39.6776C47.4803 39.1614 47.0423 38.1758 46.6824 37.4875C46.1818 36.5488 45.65 35.8605 44.5392 34.7342C43.2252 33.4201 42.8497 33.1541 41.4105 32.4345C40.4875 31.9808 39.0795 31.4333 38.2035 31.2143C36.8581 30.8545 36.248 30.7919 33.8232 30.745C31.5235 30.698 30.7726 30.745 29.6776 30.9796ZM32.6968 39.2081C32.4152 39.3333 32.0711 39.6775 31.9146 39.9591C31.7738 40.225 31.5079 40.9133 31.3202 41.4765C31.0386 42.29 30.9134 42.4777 30.6788 42.4464C30.5067 42.4308 29.7871 42.4621 29.0518 42.509C27.8003 42.6029 27.6908 42.6498 27.2058 43.1348C26.7991 43.5571 26.7052 43.7918 26.7052 44.3393C26.7052 44.6991 26.8147 45.1528 26.9399 45.3562C27.065 45.5439 27.5031 45.9194 27.9098 46.201C28.3322 46.4825 28.7389 46.8111 28.8484 46.9362C28.958 47.077 29.0518 47.343 29.0518 47.5463C29.0518 47.7341 28.911 48.4693 28.7389 49.1733C28.4886 50.1589 28.4573 50.5812 28.5669 50.941C28.6451 51.1913 28.9423 51.5981 29.1926 51.8327C29.5993 52.2082 29.8027 52.2708 30.4128 52.2238C31.0542 52.1926 31.3358 52.0518 32.2901 51.2852L33.4321 50.3935C35.1842 51.8015 35.9038 52.2708 36.1698 52.3334C36.4826 52.4116 36.8425 52.3646 37.2179 52.2082C37.5464 52.0674 37.9532 51.7389 38.1253 51.4417C38.2973 51.1757 38.4381 50.769 38.4381 50.5499C38.4381 50.3309 38.2817 49.627 38.1096 48.9856C37.9219 48.3129 37.8124 47.6245 37.875 47.3742C37.9375 47.0927 38.2661 46.7328 38.8292 46.3261C39.2985 45.9819 39.7992 45.5439 39.9243 45.3405C40.0495 45.1528 40.159 44.7617 40.159 44.4801C40.159 44.2142 40.0495 43.7762 39.9243 43.5102C39.7992 43.2443 39.4706 42.9314 39.2203 42.8062C38.9387 42.6654 38.2035 42.5559 37.3431 42.5246L35.9351 42.4934C35.6848 41.5234 35.5284 40.9915 35.4345 40.6943C35.3406 40.3971 35.1529 39.9747 35.0121 39.7713C34.8713 39.568 34.5272 39.302 34.2456 39.1769C33.9796 39.0674 33.6198 38.9735 33.4634 38.9735C33.3226 38.9891 32.9628 39.083 32.6812 39.2081H32.6968Z" fill="white"/>
</svg>
