<svg width="56" height="56" viewBox="0 0 56 56" fill="none" xmlns="http://www.w3.org/2000/svg">
<path d="M5.00909 16.71C5.00909 16.86 4.29909 17.19 3.38909 17.62C2.47909 18.05 1.73908 18.4099 1.65908 18.2899C1.57908 18.1699 2.21909 17.6 3.16909 17.15C4.11909 16.7 4.96909 16.59 5.00909 16.71Z" fill="#F5F5F5"/>
<path d="M27.8 55.6C43.1535 55.6 55.6 43.1535 55.6 27.8C55.6 12.4465 43.1535 0 27.8 0C12.4465 0 0 12.4465 0 27.8C0 43.1535 12.4465 55.6 27.8 55.6Z" fill="#E6A3D0"/>
<path d="M4.92969 16.5599L9.05969 23.1299L18.6797 16.5599V7.68994H11.8097L4.92969 16.5599Z" fill="#F5F5F5"/>
<path d="M28.6211 23.89V35.35L38.4011 38.41L45.1211 29.55L39.0111 20.53L28.6211 23.89Z" fill="#F5F5F5"/>
<path d="M31.9805 0.320068V4.32007L40.9805 10.3201L48.1505 8.86008C48.1005 8.28008 39.5005 0.530068 31.9805 0.320068Z" fill="#F5F5F5"/>
<path d="M8.3797 35.8401L4.92969 40.3401L12.7097 49.6901H19.4597L18.6797 40.8601L8.3797 35.8401Z" fill="#F5F5F5"/>
<path d="M29.5002 34.8599C27.8796 36.2517 26.1165 37.4685 24.2402 38.4899C22.4517 39.6714 20.5015 40.5876 18.4502 41.2099C18.3902 41.0799 20.9602 39.8599 23.9802 38.0399C25.7598 36.8783 27.6027 35.8166 29.5002 34.8599Z" fill="#F5F5F5"/>
<path d="M29.1112 24.1701C28.4294 24.1259 27.7679 23.9202 27.1812 23.57C25.72 22.8552 24.3389 21.987 23.0612 20.9801C21.7709 20.0032 20.5419 18.9479 19.3813 17.82C18.869 17.3798 18.4153 16.8757 18.0312 16.32C18.1412 16.2 20.3812 18.32 23.3712 20.57C24.6451 21.5491 25.9813 22.4443 27.3712 23.2501C28.4112 23.8501 29.1312 24.1001 29.1112 24.1701Z" fill="#F5F5F5"/>
<path d="M8.56057 36.5001C8.44966 35.8127 8.4128 35.1153 8.45058 34.4201C8.45058 33.1401 8.45058 31.4201 8.45058 29.4201C8.37256 27.0522 8.51314 24.6822 8.87057 22.3401C8.98761 23.0268 9.02454 23.7248 8.98058 24.4201C8.98058 25.7001 8.98058 27.4701 8.98058 29.4201C9.06243 31.788 8.9218 34.1584 8.56057 36.5001Z" fill="#F5F5F5"/>
<path d="M39.0117 20.5301C39.1933 18.6886 39.4973 16.8612 39.9217 15.0601C40.1613 13.2308 40.4951 11.415 40.9217 9.62012C41.0116 11.4777 40.8433 13.3388 40.4217 15.1501C40.1718 16.994 39.6983 18.8006 39.0117 20.5301Z" fill="#F5F5F5"/>
<path d="M31.9783 4.33003C29.7103 5.04657 27.4073 5.64736 25.0783 6.13005C23.1783 6.62005 21.4683 7.13004 20.2383 7.46004C19.5899 7.70664 18.9205 7.89407 18.2383 8.02003C20.3594 6.90576 22.6291 6.10094 24.9783 5.63005C26.8883 5.15005 28.6483 4.80002 29.9183 4.57002C30.5918 4.40164 31.2842 4.32098 31.9783 4.33003Z" fill="#F5F5F5"/>
<path d="M55.6016 29.08C53.8288 29.3662 52.0372 29.52 50.2415 29.54C48.448 29.7206 46.6398 29.6971 44.8516 29.47C46.6241 29.183 48.416 29.0325 50.2115 29.02C52.0046 28.8333 53.8131 28.8534 55.6016 29.08Z" fill="#F5F5F5"/>
<path d="M39.2309 49.15C38.8608 47.3186 38.6135 45.4644 38.4909 43.6C38.1895 41.746 38.1123 39.8624 38.2609 37.99C38.631 39.8214 38.8782 41.6755 39.0009 43.54C39.3022 45.394 39.3795 47.2775 39.2309 49.15Z" fill="#F5F5F5"/>
<path d="M31.4214 53.1499C29.2977 53.1878 27.1854 52.8318 25.1914 52.0999C23.1397 51.5649 21.1948 50.6821 19.4414 49.4899C19.5114 49.3599 22.0414 50.5999 25.3514 51.5999C28.6614 52.5999 31.4314 53.0099 31.4214 53.1499Z" fill="#F5F5F5"/>
<path d="M31.1484 55.4V53.4L38.8984 48.53L45.8984 48.94C45.9984 49.08 37.3084 55.81 31.1484 55.4Z" fill="#F5F5F5"/>
<path d="M11.4997 5.31006C11.6397 5.31006 11.8297 5.85004 11.9497 6.57004C12.0697 7.29004 11.9497 7.93004 11.8297 7.92004C11.7097 7.91004 11.5597 7.36005 11.4397 6.65005C11.3197 5.94005 11.3297 5.32006 11.4997 5.31006Z" fill="#F5F5F5"/>
<path d="M5.40074 40.4399C5.40074 40.5799 4.77075 40.5699 4.06075 40.4399C3.35075 40.3099 2.84076 40.1499 2.82076 40.0099C2.80076 39.8699 3.46076 39.7499 4.17076 39.9299C4.88076 40.1099 5.43074 40.2999 5.40074 40.4399Z" fill="#F5F5F5"/>
<path d="M12.4991 51.0301C12.3591 51.0301 12.3091 50.6301 12.3791 50.2001C12.4491 49.7701 12.6391 49.4501 12.7791 49.4701C12.9191 49.4901 12.9691 49.8701 12.8991 50.3001C12.8291 50.7301 12.5991 51.0501 12.4991 51.0301Z" fill="#F5F5F5"/>
</svg>
