<svg width="8" height="8" viewBox="0 0 8 8" fill="none" xmlns="http://www.w3.org/2000/svg">
<path d="M4.42327 0.194224C4.55854 0.124082 4.72889 0.0489309 4.79903 0.0288904C4.86917 0.00383979 5.14974 -0.00618046 5.42529 0.00383979C5.86118 0.01386 5.96639 0.0338999 6.25197 0.169173C6.43233 0.254345 6.70789 0.444731 6.87322 0.590024C7.03354 0.740328 7.22894 0.970793 7.30409 1.11108C7.38425 1.24635 7.48446 1.49686 7.52955 1.66219C7.58967 1.86761 7.60971 2.08304 7.59969 2.33856C7.58466 2.62413 7.53957 2.78947 7.42433 3.03998C7.29407 3.32054 7.04857 3.60111 5.72089 4.98891C4.86917 5.88573 4.03749 6.75749 3.57155 7.24347L2.34407 7.61923C1.6677 7.82966 1.08152 8 1.04144 8C1.00135 8 0.866081 7.96493 0.740828 7.92485C0.615575 7.87976 0.440221 7.77454 0.345029 7.68436C0.254846 7.59418 0.134603 7.42384 0.0794919 7.29858C-0.000670094 7.11822 -0.0157006 7.01802 0.0143601 6.79757C0.0344006 6.64727 0.129593 6.16128 0.224785 5.72039C0.319978 5.2795 0.41517 4.82859 0.43521 4.71837C0.455251 4.60814 0.500342 4.46786 0.540423 4.41275L1.6677 3.11012C2.24888 2.45379 2.76492 1.87262 2.82003 1.81249C2.87514 1.75738 3.05551 1.55698 3.22084 1.36158C3.38617 1.1712 3.66674 0.855561 3.84711 0.665176C4.02747 0.474791 4.28299 0.264366 4.42327 0.194224Z" fill="#CFDEFD"/>
</svg>
