<svg width="32" height="32" viewBox="0 0 32 32" fill="none" xmlns="http://www.w3.org/2000/svg">
<path fill-rule="evenodd" clip-rule="evenodd" d="M4.19899 4.19899C6.99961 1.39836 11.0411 0 16 0C20.9589 0 25.0003 1.39836 27.8011 4.19899C30.6017 6.99961 32 11.0411 32 16C32 20.9589 30.6017 25.0003 27.8011 27.8011C25.0003 30.6017 20.9589 32 16 32C11.0411 32 6.99961 30.6017 4.19899 27.8011C1.39836 25.0003 0 20.9589 0 16C0 11.0411 1.39836 6.99961 4.19899 4.19899ZM22.3873 22.3861C21.8087 22.9647 20.8707 22.9647 20.2921 22.3861L17.4154 19.5093C16.6343 18.7283 15.368 18.7283 14.587 19.5093L11.7102 22.3861C11.1316 22.9647 10.1936 22.9647 9.61505 22.3861C9.03649 21.8076 9.03649 20.8695 9.61505 20.291L12.4918 17.4142C13.2729 16.6332 13.2729 15.3668 12.4918 14.5858L9.61505 11.709C9.03649 11.1305 9.03649 10.1925 9.61505 9.61389C10.1936 9.03533 11.1316 9.03533 11.7102 9.61389L14.5869 12.4907C15.368 13.2717 16.6343 13.2717 17.4154 12.4907L20.2921 9.61389C20.8707 9.03535 21.8087 9.03535 22.3873 9.61389C22.9658 10.1925 22.9658 11.1305 22.3873 11.709L19.5105 14.5858C18.7295 15.3668 18.7295 16.6332 19.5105 17.4142L22.3873 20.291C22.9658 20.8695 22.9658 21.8076 22.3873 22.3861Z" fill="#EA8484"/>
</svg>
