<svg width="24" height="28" viewBox="0 0 24 28" fill="none" xmlns="http://www.w3.org/2000/svg">
<path fill-rule="evenodd" clip-rule="evenodd" d="M10.0799 0.134861C9.75823 0.197399 9.32046 0.322475 9.09711 0.402881C8.87376 0.483287 8.45387 0.670901 8.15904 0.822779C7.86422 0.965723 7.41752 1.24268 7.1763 1.42136C6.92615 1.60897 6.48839 2.011 6.18463 2.32369C5.88087 2.63638 5.46991 3.15455 5.26443 3.47618C5.05895 3.7978 4.77306 4.36958 4.63011 4.7448C4.47824 5.12897 4.29956 5.79008 4.22808 6.21891C4.14768 6.68348 4.09407 7.56795 4.09407 8.38988L4.08514 9.77464C3.22748 10.2571 2.6289 10.7395 2.209 11.1594C1.74443 11.615 1.29773 12.169 1.07438 12.5442C0.877835 12.8837 0.609815 13.4912 0.475805 13.8843C0.332861 14.2952 0.180983 15.0725 0.100577 15.7158C0.00230298 16.5377 -0.015565 17.4311 0.011237 19.066C0.038039 20.5848 0.100577 21.5497 0.198851 22.0857C0.279257 22.5145 0.440069 23.131 0.574079 23.4705C0.699155 23.801 0.976109 24.346 1.18159 24.6944C1.39601 25.0428 1.86951 25.5968 2.22687 25.9452C2.59316 26.2936 3.09347 26.7046 3.33468 26.8654C3.58484 27.0262 4.06727 27.2763 4.40676 27.4193C4.74626 27.5622 5.35377 27.7498 5.74686 27.8392C6.39011 27.9821 6.97082 28 11.554 28C15.5475 28 16.7804 27.9732 17.2717 27.8749C17.6201 27.8035 18.2009 27.6337 18.5672 27.4997C18.9334 27.3568 19.4784 27.0887 19.7732 26.9011C20.0681 26.7135 20.5237 26.3561 20.7917 26.1149C21.0597 25.8737 21.4439 25.4538 21.6494 25.1858C21.8638 24.9178 22.1854 24.3907 22.3641 24.0244C22.5517 23.6581 22.7751 23.0774 22.8555 22.7289C22.9448 22.3805 23.0609 21.6658 23.1146 21.1208C23.1682 20.5758 23.2128 19.3698 23.2128 18.4406C23.2128 17.5115 23.1682 16.3769 23.1235 15.9391C23.0699 15.5013 22.9716 14.8492 22.8912 14.5097C22.8197 14.1702 22.6053 13.5627 22.4177 13.1696C22.239 12.7765 21.9263 12.2315 21.7298 11.9635C21.5243 11.6955 21.1044 11.2309 20.7828 10.9361C20.4612 10.6412 19.9519 10.2571 19.6571 10.0873L19.1121 9.77464C19.1032 7.90744 19.0585 7.02297 19.0139 6.60308C18.9602 6.18318 18.8173 5.52206 18.6833 5.12897C18.5582 4.73587 18.3349 4.1909 18.183 3.92288C18.04 3.65486 17.7899 3.25283 17.6291 3.02948C17.4683 2.80613 17.0752 2.38623 16.7625 2.08247C16.4587 1.77872 15.9406 1.36775 15.6189 1.16227C15.2973 0.956789 14.7523 0.670901 14.4128 0.536891C14.0733 0.393947 13.4748 0.215267 13.0906 0.134861C12.7154 0.0544551 12.0096 -0.00808287 11.5361 0.000851132C11.0537 0.000851132 10.4015 0.0633891 10.0799 0.134861ZM10.7767 3.12774C10.5355 3.17241 10.0978 3.32429 9.78507 3.4583C9.48131 3.60124 9.02568 3.87819 8.78446 4.06581C8.53431 4.26236 8.17695 4.66439 7.97146 4.95921C7.77492 5.2451 7.51583 5.7722 7.40862 6.11169C7.22994 6.62987 7.19421 6.93362 7.18527 7.88062L7.17634 9.02418L16.021 9.01524C16.0031 7.0855 15.9585 6.67454 15.8155 6.20103C15.7172 5.86154 15.4582 5.31657 15.2437 5.00388C15.0293 4.68225 14.6541 4.26236 14.4129 4.06581C14.1627 3.87819 13.725 3.61017 13.4301 3.46723C13.1353 3.33322 12.6529 3.18134 12.3581 3.12774C12.0632 3.07413 11.6791 3.02946 11.5093 3.0384C11.3396 3.04733 11.009 3.08307 10.7678 3.12774H10.7767Z" fill="#CBC8C8"/>
</svg>
