<svg width="43" height="50" viewBox="0 0 43 50" fill="none" xmlns="http://www.w3.org/2000/svg">
<path d="M18.0687 0.0806326C17.5524 0.11192 16.3166 0.19014 15.331 0.284003C14.3454 0.362222 12.828 0.581236 11.9676 0.737675C11.1071 0.909757 9.83999 1.20699 9.15166 1.39472C8.46333 1.58244 7.44648 1.92661 6.8833 2.14562C6.32012 2.38028 5.36585 2.83395 4.77138 3.17812C4.12998 3.52228 3.22264 4.2419 2.58124 4.8833C1.95548 5.50905 1.26715 6.4164 0.985564 6.93265C0.719618 7.44889 0.391097 8.29366 0.250302 8.80991C0.109507 9.32616 0 10.3743 0 11.1565C0 11.97 0.140795 13.1276 0.297233 13.8942C0.469316 14.6294 0.797837 15.7558 1.01685 16.3972C1.25151 17.0386 1.79904 18.2744 2.22143 19.1349C2.64381 19.9953 3.34779 21.2781 3.80146 21.9977C4.25513 22.7017 4.64623 23.2805 4.69316 23.2805C4.74009 23.2961 5.19376 22.7486 5.72565 22.0759C6.2419 21.4032 7.19618 20.402 7.83758 19.8545C8.47897 19.2913 9.41761 18.5717 9.93385 18.2432L10.8725 17.6487C10.3406 15.5211 10.1059 14.2853 9.99643 13.5031C9.88692 12.6739 9.85563 11.4224 9.90257 10.4525C9.96514 9.54517 10.1372 8.23109 10.325 7.51147C10.497 6.80749 10.763 6.04095 10.9038 5.82193C11.0602 5.58727 11.3731 5.30568 11.6077 5.19618C11.858 5.07103 12.343 4.97716 12.7028 4.97716C13.0939 4.97716 13.5789 5.10231 13.8761 5.29004C14.1577 5.46212 14.5019 5.82193 14.627 6.07223C14.7522 6.33818 14.8617 6.80749 14.8617 7.13602C14.846 7.44889 14.7522 8.13722 14.627 8.65347C14.5019 9.16972 14.3924 10.1083 14.3924 10.7341C14.3924 11.7353 14.4236 11.8448 14.6583 11.7822C14.8147 11.751 15.6439 11.6414 16.5043 11.5632C17.3647 11.485 18.7414 11.3599 19.5548 11.3129C20.3683 11.2504 22.0578 11.2816 23.3094 11.3911C24.5609 11.485 26.1409 11.6258 26.8292 11.7197C27.5176 11.7979 28.112 11.8292 28.159 11.7822C28.2059 11.7197 28.1433 10.9688 28.0494 10.0927C27.9399 9.21665 27.7522 8.12158 27.6584 7.66791C27.4706 6.88571 27.4706 6.80749 27.8461 6.13481C28.0964 5.69678 28.4249 5.35262 28.7378 5.21182C29.0194 5.08667 29.52 4.97716 29.8328 4.97716C30.1927 4.97716 30.6463 5.10231 30.9749 5.33697C31.2721 5.5247 31.6006 5.86886 31.7101 6.07223C31.8196 6.29125 32.023 6.917 32.1794 7.48018C32.3984 8.27802 32.461 9.07586 32.461 11.3129C32.461 13.7064 32.3984 14.3322 32.1012 15.5368C31.9135 16.3033 31.7101 17.0542 31.6632 17.1794C31.6162 17.3358 31.8978 17.6018 32.5705 18.0085C33.1181 18.3214 34.1349 19.0879 34.8389 19.6824C35.5585 20.2925 36.5754 21.3406 37.1072 22.029C37.7174 22.8112 38.1554 23.2336 38.2492 23.1397C38.3431 23.0615 38.7655 22.4201 39.2192 21.7005C39.6572 20.9808 40.4081 19.5729 40.8774 18.5873C41.3467 17.6018 41.8786 16.3346 42.0664 15.7714C42.2384 15.2083 42.4887 14.2383 42.6295 13.6282C42.7547 13.0025 42.8642 11.9387 42.8642 11.2816C42.8642 10.609 42.7547 9.60775 42.6295 9.04457C42.4887 8.48139 42.1602 7.57404 41.8786 7.01086C41.5501 6.33818 41.0026 5.61856 40.283 4.89894C39.6103 4.22626 38.7029 3.52228 37.9364 3.0999C37.248 2.72445 36.2312 2.23949 35.668 2.02047C35.1048 1.8171 34.0567 1.48858 33.3214 1.30085C32.5862 1.09748 31.1156 0.80025 30.0362 0.612524C28.9568 0.440441 26.8292 0.221427 25.2961 0.127564C23.7787 0.0493448 21.7293 -0.0132306 20.7594 0.00241324C19.8051 0.0180571 18.5849 0.0493448 18.0687 0.0806326Z" fill="white"/>
<path fill-rule="evenodd" clip-rule="evenodd" d="M17.6776 19.9796C16.9423 20.1361 15.9567 20.3864 15.4874 20.5428C15.0181 20.6992 14.0013 21.1373 13.2191 21.5284C12.0614 22.1228 11.5452 22.5139 10.325 23.7498C9.13602 24.9387 8.69799 25.5176 8.10352 26.6439C7.71243 27.4105 7.22747 28.5525 7.05538 29.1469C6.86766 29.7414 6.61735 30.9303 6.4922 31.7751C6.36705 32.6042 6.25755 34.0122 6.25755 34.8882C6.25755 35.7799 6.36705 37.1722 6.4922 37.9857C6.633 38.7992 6.8833 39.9568 7.05538 40.567C7.24311 41.1771 7.71243 42.2878 8.11917 43.0543C8.58848 43.946 9.22988 44.8534 9.93385 45.6043C10.5283 46.2613 11.4826 47.0905 12.0458 47.4503C12.609 47.8257 13.485 48.3107 14.0013 48.5453C14.5175 48.7643 15.5344 49.1242 16.2696 49.3432C17.1457 49.5935 18.3815 49.7812 19.8677 49.9063C21.7606 50.0471 22.4489 50.0315 24.0133 49.8438C25.1084 49.6873 26.5007 49.3901 27.3768 49.0929C28.1902 48.8269 29.3948 48.3107 30.0362 47.9509C30.7558 47.5441 31.6945 46.8089 32.4767 46.0423C33.2901 45.2288 34.0098 44.3528 34.4791 43.5393C34.8702 42.851 35.4177 41.6464 35.668 40.8798C35.9183 40.1133 36.2468 38.7679 36.372 37.9075C36.4971 37.0471 36.6066 35.6235 36.6066 34.7318C36.6066 33.8557 36.4659 32.3539 36.2938 31.384C36.1373 30.4141 35.8557 29.1939 35.668 28.6776C35.4803 28.1614 35.0423 27.1758 34.6824 26.4875C34.1818 25.5488 33.65 24.8605 32.5392 23.7342C31.2252 22.4201 30.8497 22.1541 29.4105 21.4345C28.4875 20.9808 27.0795 20.4333 26.2035 20.2143C24.8581 19.8545 24.248 19.7919 21.8232 19.745C19.5235 19.698 18.7726 19.745 17.6776 19.9796ZM20.6968 28.2081C20.4152 28.3333 20.0711 28.6775 19.9146 28.9591C19.7738 29.225 19.5079 29.9133 19.3202 30.4765C19.0386 31.29 18.9134 31.4777 18.6788 31.4464C18.5067 31.4308 17.7871 31.4621 17.0518 31.509C15.8003 31.6029 15.6908 31.6498 15.2058 32.1348C14.7991 32.5571 14.7052 32.7918 14.7052 33.3393C14.7052 33.6991 14.8147 34.1528 14.9399 34.3562C15.065 34.5439 15.5031 34.9194 15.9098 35.201C16.3322 35.4825 16.7389 35.8111 16.8484 35.9362C16.958 36.077 17.0518 36.343 17.0518 36.5463C17.0518 36.7341 16.911 37.4693 16.7389 38.1733C16.4886 39.1589 16.4573 39.5812 16.5669 39.941C16.6451 40.1913 16.9423 40.5981 17.1926 40.8327C17.5993 41.2082 17.8027 41.2708 18.4128 41.2238C19.0542 41.1926 19.3358 41.0518 20.2901 40.2852L21.4321 39.3935C23.1842 40.8015 23.9038 41.2708 24.1698 41.3334C24.4826 41.4116 24.8425 41.3646 25.2179 41.2082C25.5464 41.0674 25.9532 40.7389 26.1253 40.4417C26.2973 40.1757 26.4381 39.769 26.4381 39.5499C26.4381 39.3309 26.2817 38.627 26.1096 37.9856C25.9219 37.3129 25.8124 36.6245 25.875 36.3742C25.9375 36.0927 26.2661 35.7328 26.8292 35.3261C27.2985 34.9819 27.7992 34.5439 27.9243 34.3405C28.0495 34.1528 28.159 33.7617 28.159 33.4801C28.159 33.2142 28.0495 32.7762 27.9243 32.5102C27.7992 32.2443 27.4706 31.9314 27.2203 31.8062C26.9387 31.6654 26.2035 31.5559 25.3431 31.5246L23.9351 31.4934C23.6848 30.5234 23.5284 29.9915 23.4345 29.6943C23.3406 29.3971 23.1529 28.9747 23.0121 28.7713C22.8713 28.568 22.5272 28.302 22.2456 28.1769C21.9796 28.0674 21.6198 27.9735 21.4634 27.9735C21.3226 27.9891 20.9628 28.083 20.6812 28.2081H20.6968Z" fill="white"/>
</svg>
