<svg width="163" height="131" viewBox="0 0 163 131" fill="none" xmlns="http://www.w3.org/2000/svg">
<mask id="mask0_140_2681" style="mask-type:alpha" maskUnits="userSpaceOnUse" x="116" y="53" width="41" height="38">
<path d="M130.833 60.0033C123.339 65.324 136.625 76.3942 124.096 81.3821C117.989 85.7519 109.935 93.3972 126.572 89.0197C147.369 83.5478 135.04 72.9768 137.279 67.6258C139.517 62.2748 148.116 63.3022 152.898 63.833C157.679 64.3637 157.701 59.0379 154.618 55.4126C151.535 51.7872 138.327 54.6826 130.833 60.0033Z" fill="#1547FA"/>
</mask>
<g mask="url(#mask0_140_2681)">
<path d="M130.833 60.0033C123.339 65.324 136.625 76.3942 124.096 81.3821C117.989 85.7519 109.935 93.3972 126.572 89.0197C147.369 83.5478 135.04 72.9768 137.279 67.6258C139.517 62.2748 148.116 63.3022 152.898 63.833C157.679 64.3637 157.701 59.0379 154.618 55.4126C151.535 51.7872 138.327 54.6826 130.833 60.0033Z" fill="#3C6AC3"/>
<path d="M127.899 57.9531C120.405 63.2738 133.691 74.3439 121.161 79.3318C115.054 83.7017 107 91.347 123.638 86.9695C144.435 81.4976 132.106 70.9266 134.344 65.5756C136.583 60.2246 145.182 61.252 149.963 61.7827C154.745 62.3134 154.767 56.9877 151.684 53.3623C148.601 49.737 135.393 52.6324 127.899 57.9531Z" fill="#4D83EC"/>
</g>
<path d="M124.008 72.8791C124.563 105.105 125.129 125.494 68.2147 127.614C9.77788 129.006 8.79384 104.19 9.09481 71.3671C9.09481 40.6367 26.3318 14.4092 68.2147 14.4092C103.898 14.4092 122.799 38.8587 124.008 72.8791Z" fill="#4D83EC"/>
<mask id="mask1_140_2681" style="mask-type:alpha" maskUnits="userSpaceOnUse" x="24" y="24" width="86" height="75">
<ellipse cx="66.569" cy="61.5773" rx="42.5067" ry="36.7801" fill="white"/>
</mask>
<g mask="url(#mask1_140_2681)">
<ellipse cx="66.569" cy="61.5773" rx="42.5067" ry="36.7801" fill="#E9EEFF"/>
<ellipse cx="63.6375" cy="59.0407" rx="39.5752" ry="34.2436" fill="white"/>
</g>
<path d="M76.9998 59H95.4998" stroke="#2E66E5" stroke-width="6" stroke-linecap="round"/>
<path d="M35.9998 59H54.4998" stroke="#4D83EC" stroke-width="6" stroke-linecap="round"/>
<path d="M25.5746 62.9001H31.0179" stroke="#B8C7FF" stroke-width="1.57432" stroke-linecap="round"/>
<path d="M102.386 63.2024H107.829" stroke="#B8C7FF" stroke-width="1.57432" stroke-linecap="round"/>
<path d="M66.8317 27.1587V32.2196" stroke="#B8C7FF" stroke-width="1.57432" stroke-linecap="round"/>
<path d="M66.3073 90.748V95.8089" stroke="#B8C7FF" stroke-width="1.57432" stroke-linecap="round"/>
<path d="M65.1384 64.3326L62.6745 62.2208C62.1196 61.7452 62.456 60.8359 63.1868 60.8359H68.1145C68.8453 60.8359 69.1817 61.7452 68.6268 62.2208L66.1629 64.3326C65.8681 64.5853 65.4331 64.5853 65.1384 64.3326Z" fill="#4D83EC"/>
<path d="M10.6047 97.6765C54.7562 111.751 79.3691 111.701 123.099 97.6765C120.226 139.559 14.9501 144.365 10.6047 97.6765Z" fill="white"/>
<path d="M123.099 97.6764C77.1151 113.014 52.6402 111.025 10.6052 97.6764C10.3658 96.4906 10.1516 95.106 9.69798 92.2332C53.0807 108.779 79.3793 107.526 123.704 92.2332C123.639 94.4199 123.402 95.7108 123.099 97.6764Z" fill="#84A7EA"/>
<path d="M13.025 106.748L27.2419 107.493L26.9565 113.593L17.2586 113.704C16.9418 113.775 13.781 109.319 13.025 106.748Z" fill="#CFDEFD"/>
<path d="M121.436 104.934L105.954 106.093L106.455 112.164L117.353 112.041C118.866 110.529 121.134 106.093 121.436 104.934Z" fill="#CFDEFD"/>
<path d="M107.19 94.2858C107.19 87.9697 113.28 86.9351 118.559 86.9351C123.837 86.9351 128.398 90.4267 128.398 96.7428C128.398 103.059 124.145 107.906 118.867 107.906C113.588 107.906 107.19 100.602 107.19 94.2858Z" fill="#3C6AC4"/>
<path d="M24.0695 96.7368C24.0695 90.4207 19.1599 89.4017 13.8813 89.4017C8.60268 89.4017 3.69727 95.763 3.69727 102.079C3.69727 108.395 7.97105 111.834 13.4741 111.743C20.7116 111.021 25.0576 101.228 24.0695 96.7368Z" fill="#3C6AC4"/>
<ellipse cx="117.6" cy="93.8448" rx="10.4329" ry="13.6082" transform="rotate(165 117.6 93.8448)" fill="#4D83EC"/>
<ellipse cx="10.4329" cy="13.6082" rx="10.4329" ry="13.6082" transform="matrix(0.965926 0.258819 0.258819 -0.965926 0 108.289)" fill="#4D83EC"/>
<ellipse cx="8.07678" cy="10.5349" rx="8.07678" ry="10.5349" transform="matrix(0.0560863 0.998426 0.998426 -0.0560863 34.3463 111.559)" fill="#4D83EC"/>
<ellipse cx="8.07678" cy="10.5349" rx="8.07678" ry="10.5349" transform="matrix(-4.37114e-08 1 1 4.37114e-08 77.8917 110.377)" fill="#4D83EC"/>
<g style="mix-blend-mode:multiply">
<path d="M88.2904 127.526C94.1088 127.526 98.8254 123.91 98.8254 119.449C98.6753 120.951 95.3372 126.254 87.4257 126.405C79.5143 126.556 77.1359 118.24 78.6479 121.566C79.5552 123.834 82.4721 127.526 88.2904 127.526Z" fill="#CBC8C8" fill-opacity="0.5"/>
</g>
<path d="M99.0705 7.32719L84.5163 19.2829C83.1338 20.4187 83.4198 22.6103 85.0475 23.3532L104.436 32.2017C106.263 33.0355 108.252 31.4092 107.797 29.4533L102.963 8.64897C102.557 6.90164 100.457 6.18851 99.0705 7.32719Z" fill="#4D83EC"/>
<path d="M32.9404 7.32719L47.4946 19.2829C48.8772 20.4187 48.5912 22.6103 46.9634 23.3532L27.5748 32.2017C25.748 33.0355 23.7594 31.4092 24.2139 29.4533L29.0484 8.64897C29.4544 6.90164 31.5543 6.18851 32.9404 7.32719Z" fill="#4D83EC"/>
<path fill-rule="evenodd" clip-rule="evenodd" d="M58.8267 65.4444C64.1769 68.4937 66.2867 68.2699 71.9029 65.4017C71.9671 65.369 72.0399 65.3385 72.1084 65.3163C88.8181 59.8933 89.4998 91.8615 74.1934 88.1395C74.0962 88.1159 73.9944 88.078 73.9047 88.0337C68.0671 85.1516 64.6888 85.4629 58.6645 88.1015C41.708 93.0469 41.7568 61.0189 58.4794 65.3029C58.5977 65.3332 58.7206 65.384 58.8267 65.4444ZM55.9771 75.397C55.9771 76.3434 55.3309 77.1106 54.5339 77.1106C53.7369 77.1106 53.0908 76.3434 53.0908 75.397C53.0908 74.4506 53.7369 73.6834 54.5339 73.6834C55.3309 73.6834 55.9771 74.4506 55.9771 75.397ZM76.8281 77.1106C77.6252 77.1106 78.2713 76.3434 78.2713 75.397C78.2713 74.4506 77.6252 73.6834 76.8281 73.6834C76.0311 73.6834 75.385 74.4506 75.385 75.397C75.385 76.3434 76.0311 77.1106 76.8281 77.1106Z" fill="#DB7B7B"/>
<g style="mix-blend-mode:multiply">
<path d="M63.0638 84.6681C54.3864 88.3208 50.2028 87.0033 46.3278 81.3778C48.396 87.8187 53.3596 91.1277 63.0638 86.4315C65.3416 85.9686 66.5409 85.9982 68.7326 86.1866L71.4931 86.8723C77.4391 89.9649 82.2775 88.1505 84.6776 81.3778C78.5159 88.1372 74.9981 87.5748 68.7326 84.6681H63.0638Z" fill="#D9D9D9"/>
</g>
<circle cx="64.9466" cy="86.1097" r="7.76417" stroke="#D4E2F8" stroke-width="3.38999"/>
<g style="mix-blend-mode:multiply">
<path d="M74.4553 86.1098C74.4553 91.4681 70.2203 95.5689 64.9961 95.5689C59.772 95.5689 55.537 91.3339 55.537 86.1098C55.537 80.8856 54.2247 94.202 65.1055 94.7488C74.674 94.4754 74.4553 80.8856 74.4553 86.1098Z" fill="#F1F1F1"/>
</g>
<ellipse cx="64.9705" cy="77.6325" rx="7.70949" ry="7.60014" fill="white"/>
<path d="M72.7183 77.6296C72.7183 81.827 69.2667 85.2297 65.0088 85.2297C61.2632 85.5273 58.5361 82.2772 58.0278 80.9642C57.3187 79.1324 58.1008 84.1693 65.4732 83.6233C72.6359 82.2564 72.7183 73.4322 72.7183 77.6296Z" fill="#D8D8D8" style="mix-blend-mode:multiply"/>
</svg>
