<svg width="11" height="12" viewBox="0 0 11 12" fill="none" xmlns="http://www.w3.org/2000/svg">
<path d="M9.18385 7.26915C9.18385 9.1939 7.53529 10.7542 5.50168 10.7542C3.46808 10.7542 1.81951 9.1939 1.81951 7.26915C1.81951 5.34441 3.46808 2.12894 5.50168 2.12894C7.53529 2.12894 9.18385 5.34441 9.18385 7.26915Z" fill="#F5F5F5"/>
<path d="M9.43783 5.43711C5.74992 5.43711 5.74986 9.46463 9.43783 9.66601V5.43711Z" fill="#B8DDFF"/>
<path d="M1.3485 4.02738C4.75273 4.02738 4.75278 8.05491 1.3485 8.25628V4.02738Z" fill="#B8DDFF"/>
<path d="M3.90314 11.3069C3.98802 8.85087 7.28853 8.95302 7.36867 11.4142L3.90314 11.3069Z" fill="#B8DDFF"/>
<path fill-rule="evenodd" clip-rule="evenodd" d="M6.39126 0.880436C6.39126 0.905404 6.39017 0.930129 6.38801 0.954571C8.72581 1.35117 10.5 4.94089 10.5 7.26766C10.5 9.88126 8.26142 12 5.5 12C2.73858 12 0.5 9.88126 0.5 7.26766C0.5 4.96638 2.23552 1.39361 4.53536 0.968158C4.53234 0.939304 4.5308 0.910041 4.5308 0.880436C4.5308 0.394185 4.94728 0 5.46103 0C5.97478 0 6.39126 0.394185 6.39126 0.880436ZM5.50037 10.754C7.53397 10.754 9.18254 9.19371 9.18254 7.26897C9.18254 5.34422 7.53397 2.12875 5.50037 2.12875C3.46676 2.12875 1.8182 5.34422 1.8182 7.26897C1.8182 9.19371 3.46676 10.754 5.50037 10.754Z" fill="#4D83EC"/>
</svg>
