<svg width="32" height="32" viewBox="0 0 32 32" fill="none" xmlns="http://www.w3.org/2000/svg">
<path fill-rule="evenodd" clip-rule="evenodd" d="M4.19899 4.19899C6.99961 1.39836 11.0411 0 16 0C20.9589 0 25.0003 1.39836 27.8011 4.19899C30.6017 6.99961 32 11.0411 32 16C32 20.9589 30.6017 25.0003 27.8011 27.8011C25.0003 30.6017 20.9589 32 16 32C11.0411 32 6.99961 30.6017 4.19899 27.8011C1.39836 25.0003 0 20.9589 0 16C0 11.0411 1.39836 6.99961 4.19899 4.19899ZM18.3709 9.32755L18.3709 16.6968H21.5827C22.0372 16.6968 22.4516 16.9566 22.6496 17.3657C22.8475 17.7748 22.7941 18.2611 22.512 18.6175C20.7398 20.8567 19.5065 21.9219 17.7253 23.2713C16.6929 24.0536 15.3088 24.0536 14.2764 23.2713C12.4952 21.9219 11.2619 20.8567 9.48966 18.6175C9.20761 18.2611 9.15418 17.7748 9.35213 17.3657C9.55008 16.9566 9.96452 16.6967 10.419 16.6967H13.6302V9.32755C13.6302 8.01842 14.6914 6.95718 16.0005 6.95718C17.3097 6.95718 18.3709 8.01842 18.3709 9.32755Z" fill="#28A68F"/>
</svg>
