<svg width="79" height="123" viewBox="0 0 79 123" fill="none" xmlns="http://www.w3.org/2000/svg">
<path d="M9.71911 102.973C9.08257 103.065 8.54425 103.013 8.10415 102.817C7.66098 102.6 7.33279 102.279 7.11958 101.855C6.92452 101.407 6.8506 100.897 6.89783 100.327C6.96628 99.7541 7.18326 99.1593 7.54876 98.5429L16.9301 81.6799L17.1472 83.1758L6.67619 84.6957C5.976 84.7973 5.40877 84.6955 4.97449 84.3902C4.56143 84.0819 4.30716 83.5988 4.21168 82.9411C4.11621 82.2833 4.22418 81.7585 4.53561 81.3667C4.86517 80.9505 5.38005 80.6917 6.08024 80.59L18.8746 78.7329C19.5324 78.6374 20.0723 78.6999 20.4942 78.9203C20.9343 79.1164 21.261 79.4264 21.4742 79.8504C21.6874 80.2744 21.7613 80.7837 21.6959 81.3781C21.6275 81.9513 21.4105 82.5461 21.045 83.1625L11.659 99.9937L11.4465 98.5296L22.4268 96.9358C23.127 96.8342 23.6836 96.9375 24.0967 97.2459C24.5279 97.5299 24.7912 98.0008 24.8867 98.6586C24.9852 99.3375 24.8697 99.8851 24.5402 100.301C24.2287 100.693 23.7229 100.94 23.0227 101.041L9.71911 102.973Z" fill="#4D83EC"/>
<path opacity="0.5" d="M30.2713 73.1923C29.6364 73.0897 29.1383 72.8789 28.7772 72.5599C28.4196 72.2198 28.2026 71.8155 28.1262 71.3471C28.0745 70.8609 28.1566 70.3529 28.3725 69.8232C28.6096 69.2968 28.9948 68.7944 29.5283 68.3159L43.5321 55.0395L43.2909 56.5316L32.8457 54.8436C32.1472 54.7307 31.6365 54.4636 31.3137 54.0422C31.012 53.6243 30.9142 53.0872 31.0203 52.4311C31.1263 51.7749 31.3866 51.3066 31.8011 51.0261C32.2403 50.7279 32.8091 50.6352 33.5075 50.7481L46.2704 52.8106C46.9266 52.9167 47.4229 53.138 47.7594 53.4748C48.1205 53.7937 48.3392 54.1874 48.4155 54.6559C48.4919 55.1243 48.4098 55.6323 48.1693 56.1798C47.9322 56.7061 47.5469 57.2086 47.0135 57.687L33.0148 70.9317L33.2509 69.4713L44.2041 71.2414C44.9026 71.3543 45.4026 71.6197 45.7043 72.0377C46.0305 72.4379 46.1407 72.9661 46.0346 73.6222C45.9252 74.2995 45.6509 74.7873 45.2117 75.0855C44.7972 75.366 44.2407 75.4498 43.5422 75.337L30.2713 73.1923Z" fill="#4D83EC"/>
</svg>
