<svg width="29" height="28" viewBox="0 0 29 28" fill="none" xmlns="http://www.w3.org/2000/svg">
<path d="M1.02693 0.80938C1.29541 0.540906 1.87366 0.25178 2.328 0.14852C2.78234 0.0452607 4.4758 -0.0166949 6.08665 0.00395694C8.68878 0.0452607 9.08117 0.0865645 9.59746 0.47895C9.90724 0.706121 10.279 1.13981 10.4235 1.40828C10.5681 1.71806 10.754 4.21694 10.8985 7.89298C11.0844 12.4364 11.0844 15.3483 10.8985 19.9743C10.7127 24.4145 10.5681 26.2112 10.3616 26.6242C10.1964 26.9547 9.72138 27.3677 9.30834 27.5536C8.68878 27.8427 7.92466 27.9046 5.52904 27.9046C3.13343 27.9046 2.36931 27.8427 1.7704 27.5536C1.33671 27.3677 0.861719 26.9547 0.696504 26.6449C0.489986 26.2318 0.324771 24.5384 0.159556 20.8004C-0.00565938 17.5787 -0.0469631 13.5309 0.0562963 10.3712C0.118252 7.54189 0.262815 4.3202 0.366074 3.2463C0.510638 1.59415 0.613897 1.20177 1.02693 0.80938Z" fill="#3B81EB"/>
<path d="M18.9321 0.91264C19.2419 0.561558 19.7995 0.25178 20.2951 0.14852C20.7495 0.0452607 22.381 -0.0166949 23.9092 0.0246088C26.057 0.0452607 26.8418 0.14852 27.3581 0.416995C27.7298 0.602862 28.1635 1.0159 28.3287 1.32568C28.5146 1.69741 28.6591 3.12239 28.7418 5.41475C28.8244 7.35603 28.8863 11.6103 28.8657 14.9146C28.845 18.1983 28.7831 22.1428 28.7005 23.6297C28.5559 26.3145 28.5352 26.3764 27.9363 26.996C27.4407 27.4916 27.0276 27.6568 25.8711 27.8427C25.0864 27.9666 23.5375 28.0286 22.4636 27.9873C21.1419 27.9253 20.2332 27.7601 19.6756 27.4916C19.1799 27.2644 18.7462 26.8514 18.5604 26.4797C18.4158 26.1286 18.2299 25.3025 18.168 24.621C18.106 23.9395 18.0441 19.3961 18.0441 14.5016C18.0234 9.60708 18.106 4.69193 18.2093 3.55608C18.3745 1.75937 18.4778 1.40828 18.9321 0.91264Z" fill="#3B81EB"/>
</svg>
