<svg width="36" height="28" viewBox="0 0 36 28" fill="none" xmlns="http://www.w3.org/2000/svg">
<path fill-rule="evenodd" clip-rule="evenodd" d="M15.0503 0.306043C14.2791 0.446264 13.0171 0.843555 12.2459 1.14737C11.4747 1.45118 10.166 2.10554 9.32465 2.57294C8.48333 3.06371 7.08113 4.06862 6.16969 4.81646C5.25826 5.56431 3.80932 7.08336 2.94463 8.15838C2.05657 9.25678 1.05165 10.7758 0.677732 11.547C0.233701 12.4585 0 13.3232 0 14.0009C0 14.6786 0.233701 15.5433 0.677732 16.4548C1.05165 17.226 2.0332 18.6983 2.82778 19.7266C3.64573 20.7548 5.0713 22.2272 5.98273 22.9984C6.89417 23.7696 8.45996 24.8913 9.46487 25.4756C10.4932 26.0832 11.8954 26.7843 12.5965 27.0414C13.2976 27.2985 14.7699 27.649 15.8683 27.8126C17.4574 28.0463 18.252 28.0697 19.8412 27.836C20.9396 27.6724 22.5755 27.2985 23.4635 26.9946C24.3516 26.6908 26.081 25.7794 27.2729 25.0082C28.4414 24.2136 30.1941 22.8114 31.1289 21.9C32.0871 20.9652 33.3958 19.3994 34.0735 18.4412C34.7279 17.483 35.4524 16.1743 35.6627 15.52C35.8497 14.889 35.9665 13.9775 35.9198 13.5335C35.8497 13.0895 35.5225 12.1313 35.1953 11.4302C34.8681 10.7291 33.8632 9.25678 32.9985 8.15838C32.1338 7.05999 30.5213 5.44746 29.4229 4.58276C28.2778 3.64796 26.4549 2.50283 25.0994 1.8251C23.6271 1.10063 22.1081 0.563114 20.9396 0.329413C19.958 0.142453 18.5325 -0.0211374 17.808 0.00223262C17.0601 0.0256027 15.8215 0.142453 15.0503 0.306043ZM16.5693 8.85938C16.1253 8.97623 15.3541 9.35015 14.8633 9.67734C14.3959 10.0045 13.7182 10.7524 13.3443 11.3833C12.8301 12.2714 12.7133 12.7622 12.7133 14.0242C12.7133 15.3329 12.8301 15.7302 13.4378 16.7117C13.8584 17.4128 14.5595 18.1139 15.284 18.558C16.2422 19.1422 16.6628 19.2591 17.9716 19.2591C19.3036 19.2591 19.7009 19.1656 20.6825 18.5346C21.3836 18.1139 22.0847 17.4128 22.5287 16.6884C23.113 15.7302 23.2298 15.3095 23.2298 14.0008C23.2298 12.6921 23.113 12.2714 22.5287 11.3132C22.1081 10.6355 21.4069 9.91104 20.776 9.51374C20.145 9.13982 19.2569 8.83601 18.5558 8.7659C17.9014 8.69579 17.0134 8.74253 16.5693 8.85938Z" fill="#2E66E5"/>
</svg>
