<svg width="28" height="26" viewBox="0 0 28 26" fill="none" xmlns="http://www.w3.org/2000/svg">
<path fill-rule="evenodd" clip-rule="evenodd" d="M12.5746 0.00431906C14.4616 -0.0133171 14.5675 0.00431903 14.9907 0.427587C15.2729 0.709765 15.4316 1.08012 15.4316 1.45048C15.4493 1.7503 15.2905 2.20884 15.0965 2.45574C14.7791 2.86137 14.6204 2.89665 12.5746 3.0201C11.393 3.07301 9.94679 3.26701 9.40007 3.4081C8.83571 3.56682 7.9539 3.90191 7.46009 4.16645C6.94864 4.41336 6.10211 5.03062 5.59066 5.52443C5.06157 6.01825 4.44431 6.7766 4.21504 7.2175C3.96813 7.65841 3.59777 8.55785 3.38614 9.24566C3.06869 10.2862 2.99815 10.9035 2.99815 13.0374C2.99815 15.1714 3.06869 15.7887 3.38614 16.8292C3.59777 17.4994 3.96813 18.4165 4.21504 18.8574C4.44431 19.2983 5.09685 20.0743 5.62593 20.5857C6.17265 21.0795 7.10737 21.7497 7.72463 22.0319C8.32426 22.3317 9.48825 22.6844 10.3171 22.8431C11.3753 23.0371 12.3806 23.09 13.7562 23.0195C14.832 22.9666 16.1371 22.7902 16.6662 22.6315C17.1952 22.4728 18.0771 22.12 18.6061 21.8379C19.1352 21.5557 19.9641 20.9561 20.4227 20.4975C20.8988 20.0213 21.5337 19.1043 21.8865 18.4165C22.2215 17.7463 22.6095 16.5647 22.7506 15.8239C22.8917 15.0656 23.0152 13.7958 23.0152 12.9845C22.9975 12.1909 22.8917 10.9035 22.7506 10.1275C22.6095 9.35148 22.4332 8.66367 22.3626 8.59312C22.2745 8.54021 21.5866 8.84003 20.8107 9.29857C19.4879 10.0569 19.3821 10.0922 18.9589 9.84529C18.6414 9.66893 18.5003 9.40439 18.465 8.98112C18.4298 8.64603 18.5356 7.76422 18.6943 7.04114C18.8707 6.31806 19.2234 4.97771 19.5056 4.07827C19.8936 2.87901 20.1228 2.40284 20.4227 2.26175C20.7225 2.10302 21.1634 2.12066 22.3626 2.34993C23.2092 2.50865 24.6377 2.86137 25.5371 3.14355C26.4189 3.44337 27.3008 3.81373 27.4595 3.99009C27.6358 4.16645 27.7769 4.44863 27.7769 4.62499C27.7769 4.78371 27.724 5.04826 27.6535 5.20698C27.5653 5.36571 26.948 5.82425 24.9728 6.95296L25.2197 7.57023C25.3608 7.90531 25.59 8.80476 25.7488 9.56311C25.8899 10.3215 26.0133 11.8205 26.0133 13.0022C26.0133 14.3778 25.8899 15.6299 25.6606 16.741C25.4313 17.8168 25.0433 18.9455 24.5672 19.9155C24.0381 20.9737 23.4737 21.7497 22.6624 22.5786C21.9746 23.284 20.987 24.0248 20.1934 24.4657C19.4703 24.8713 18.2358 25.3827 17.4598 25.5944C16.2253 25.9471 15.6433 26 12.9626 26C10.2642 26 9.69988 25.9471 8.46535 25.5944C7.68936 25.3651 6.50774 24.8889 5.81993 24.5362C5.06157 24.1306 4.12686 23.4251 3.35087 22.6491C2.57488 21.8731 1.86943 20.9384 1.4638 20.1801C1.11108 19.4923 0.634901 18.3106 0.405631 17.5346C0.0529084 16.3001 0 15.7358 0 13.0374C0 10.3391 0.0529084 9.77474 0.405631 8.54021C0.634901 7.76422 1.11108 6.5826 1.4638 5.89479C1.8518 5.18935 2.59251 4.18409 3.26269 3.51391C3.89759 2.87901 4.92049 2.05011 5.55539 1.69739C6.19029 1.34467 7.05446 0.939035 7.49536 0.78031C7.93627 0.63922 8.80044 0.392314 9.43534 0.268861C10.0702 0.127772 11.4811 0.00431906 12.5746 0.00431906ZM12.9273 6.3357C13.0331 6.3357 13.3682 6.45915 13.668 6.60024C14.0384 6.7766 14.25 7.07641 14.3911 7.53495C14.4969 7.92295 14.5498 9.2633 14.5145 10.8505C14.4793 12.8963 14.4087 13.5842 14.1971 13.8311C14.056 14.0074 13.1742 14.6423 12.2571 15.2596C10.952 16.1238 10.4406 16.3707 9.92915 16.3883C9.48825 16.3883 9.13552 16.2648 8.90625 16.0356C8.71226 15.8416 8.50062 15.5065 8.44771 15.2949C8.39481 15.0656 8.46535 14.66 8.60644 14.3601C8.76517 14.0427 9.36479 13.5136 11.3753 12.2438V9.95111C11.393 8.18749 11.4459 7.55259 11.6575 7.23514C11.8162 7.00587 12.116 6.70606 12.31 6.5826C12.5217 6.45915 12.8038 6.35333 12.9273 6.3357Z" fill="#84A7EA"/>
</svg>
