<svg width="26" height="24" viewBox="0 0 26 24" fill="none" xmlns="http://www.w3.org/2000/svg">
<path d="M1.18562 1.01625C1.52437 0.677499 2.09601 0.33875 2.43476 0.211719C2.79468 0.105859 3.45101 0.0635156 3.91679 0.127031C4.38257 0.190547 5.7164 0.762187 6.88085 1.41851C8.0453 2.07484 10.1837 3.3875 11.6445 4.34023C13.1054 5.29296 15.032 6.77499 15.9424 7.64304C16.8528 8.51109 17.7844 9.59085 18.0172 10.0566C18.229 10.5224 18.4195 11.2211 18.4195 11.581C18.4195 11.9621 18.2713 12.6396 18.0808 13.063C17.8902 13.5076 17.0222 14.5874 16.133 15.4555C15.2437 16.3447 13.6558 17.6362 12.5973 18.3348C11.5387 19.0547 9.4003 20.3673 7.83359 21.2777C6.26687 22.1881 4.67898 23.0138 4.34023 23.1197C4.00148 23.2044 3.32398 23.2255 2.8582 23.1408C2.30773 23.0562 1.71492 22.7386 1.2068 22.2516C0.762187 21.8282 0.317578 21.1507 0.190547 20.7484C0.0846874 20.3462 0 16.1753 0 11.4963C0 4.72132 0.0635156 2.81586 0.296406 2.28656C0.444609 1.90547 0.846874 1.33383 1.18562 1.01625Z" fill="#84A7EA"/>
<path d="M22.3575 0.973905L22.8656 0.486953C23.2044 0.148203 23.6066 0 24.1783 0C24.7076 0 25.131 0.148203 25.4062 0.423437C25.6391 0.656327 25.872 1.16445 25.9355 1.52437C25.999 1.90547 26.0414 6.73265 25.9355 22.2728L25.3004 22.8021C24.7922 23.2255 24.517 23.3102 23.9242 23.2044C23.5219 23.1408 23.0138 22.8656 22.8021 22.6115C22.4422 22.1669 22.421 21.3624 22.3575 0.973905Z" fill="#84A7EA"/>
</svg>
