<svg width="29" height="28" viewBox="0 0 29 28" fill="none" xmlns="http://www.w3.org/2000/svg">
<path d="M18.0818 1.33415C20.0232 0.915418 22.212 0.439582 22.9353 0.306348C23.6586 0.154081 24.5531 0.0208467 24.8957 0.00181329C25.2193 -0.0172201 25.8284 0.116014 26.2281 0.287315C26.6087 0.439582 27.1417 0.763151 27.3701 0.991552C27.6175 1.21995 27.9982 1.73386 28.1885 2.11452C28.5311 2.79973 28.5502 3.37073 28.5502 21.5857L27.9982 22.7277C27.6937 23.3558 27.1607 24.1172 26.7991 24.4217C26.4565 24.7262 25.8284 25.145 25.4096 25.3544C24.8196 25.6589 24.2867 25.7541 23.1256 25.7541C21.8694 25.7541 21.4316 25.6779 20.6703 25.2973C20.1754 25.0308 19.4522 24.4788 19.0715 24.0601C18.6908 23.6413 18.234 22.9181 18.0247 22.4422C17.7963 21.9093 17.644 21.1099 17.644 20.3486C17.625 19.3779 17.7201 18.883 18.1198 18.0645C18.4053 17.4555 18.9954 16.6751 19.5473 16.1993C20.1564 15.6473 20.8226 15.2666 21.5078 15.0763C22.174 14.886 22.9353 14.8098 23.6015 14.886C24.1725 14.9431 24.8006 15.0382 24.9909 15.0953C25.2954 15.2095 25.3145 14.9621 25.3145 11.9738C25.3145 9.93727 25.2383 8.73816 25.1241 8.73816C25.0099 8.73816 23.7157 9.0427 22.2311 9.42336C20.7274 9.80403 17.625 10.5273 11.1346 11.8977L10.9442 23.8697L10.4303 24.8214C10.1639 25.3353 9.59285 26.0967 9.19315 26.4773C8.79345 26.858 8.05114 27.3719 7.51821 27.6003C6.8901 27.8668 6.16683 28 5.42453 28C4.68223 28 3.95895 27.8668 3.33085 27.6003C2.81695 27.3719 2.01754 26.8199 1.56074 26.3822C1.08491 25.9063 0.590037 25.1831 0.380669 24.574C0.171301 24.041 0 23.1274 0 22.5755C0 22.0425 0.114201 21.2051 0.285502 20.7292C0.437769 20.2534 0.894571 19.4921 1.27524 19.0353C1.67494 18.5784 2.37918 17.9884 2.85502 17.7219C3.48312 17.3603 4.07316 17.208 5.04386 17.1509C5.8052 17.0938 6.64267 17.1509 7.61337 17.4935V12.7733C7.61337 9.19496 7.67048 7.80552 7.89888 6.98708C8.05114 6.37802 8.45085 5.50248 8.75538 5.02664C9.05992 4.55081 9.70705 3.90367 10.1829 3.59913C10.6778 3.27556 11.8007 2.81876 12.7905 2.57133C13.7612 2.30486 16.1404 1.75289 18.0818 1.33415Z" fill="#2E66E5"/>
</svg>
