<svg width="73" height="102" viewBox="0 0 73 102" fill="none" xmlns="http://www.w3.org/2000/svg">
<path d="M72.414 53.386C72.414 80.2347 56.2036 102 36.207 102C16.2104 102 0 80.2347 0 53.386C0 26.5372 16.2104 0 36.207 0C56.2036 0 72.414 26.5372 72.414 53.386Z" fill="white"/>
<path d="M71.914 53.386C71.914 66.7134 67.89 78.7597 61.4082 87.4626C54.9265 96.1655 46.0111 101.5 36.207 101.5C26.4029 101.5 17.4876 96.1655 11.0058 87.4626C4.524 78.7597 0.5 66.7134 0.5 53.386C0.5 40.055 4.52628 26.8046 11.0229 16.8989C17.526 6.98331 26.4434 0.5 36.207 0.5C45.9707 0.5 54.888 6.98331 61.3911 16.8989C67.8877 26.8046 71.914 40.055 71.914 53.386Z" fill="white" stroke="#DEDEDE"/>
<path d="M36.1484 40.5018C36.1484 47.0246 32.9528 54.0421 26.0677 54.0421C19.1825 54.0421 8.11328 47.0246 8.11328 40.5018C8.11328 33.979 16.7966 21.593 23.6817 21.593C30.5669 21.593 36.1484 33.979 36.1484 40.5018Z" fill="#E884EA"/>
<path d="M52.6986 90.5466C49.4429 93.8023 44.1293 94.9583 40.7019 91.5308C37.2744 88.1034 38.9628 82.0123 42.2186 78.7565C45.4743 75.5008 49.9279 75.4499 53.3554 78.8773C56.7828 82.3048 55.9544 87.2909 52.6986 90.5466Z" fill="#B85BBA"/>
<path d="M46.4064 61.3545C44.802 65.0337 41.5777 67.9781 38.8898 66.806C36.2019 65.6338 36.3923 60.4854 37.9967 56.8063C39.6011 53.1272 42.4373 51.3349 45.1253 52.507C47.8132 53.6792 48.0108 57.6754 46.4064 61.3545Z" fill="#F197E8"/>
<path d="M57.8478 29.1313C56.0522 32.2415 51.722 33.8617 47.5243 31.4382C43.3265 29.0146 42.7758 23.7421 44.5715 20.6319C46.3672 17.5217 50.3055 16.9267 54.5032 19.3503C58.701 21.7739 59.6435 26.0211 57.8478 29.1313Z" fill="#F8D4F7"/>
<path d="M65.3996 82.1512C69.8099 74.0964 72.4152 64.1497 72.4152 53.3859C72.4152 47.211 71.5578 41.305 69.9941 35.8708C59.6309 39.5396 52.2538 48.9886 52.2538 60.0666C52.2538 69.4247 57.5181 77.6204 65.3996 82.1512Z" fill="#FF98F5"/>
<path d="M0.078125 56.5803C1.19422 79.6829 14.3296 98.3871 31.173 101.534C34.0304 93.2614 33.2281 83.1846 28.1906 74.1558C21.9042 62.8887 10.7652 56.377 0.078125 56.5803Z" fill="#FF98F5"/>
<path d="M72.2513 52.983C74.0929 71.1163 60.9179 102 36.2679 102C16.2384 102 7.08461 82.5913 5.24294 78.7663C0.0589533 67.9997 16.2384 91.0914 36.2679 91.0914C56.2975 91.0914 72.2513 47.9116 72.2513 52.983Z" fill="#E7E7E7" style="mix-blend-mode:multiply"/>
</svg>
