<svg width="21" height="20" viewBox="0 0 21 20" fill="none" xmlns="http://www.w3.org/2000/svg">
<path d="M3.15387 0.278584C3.3396 0.192356 3.65798 0.0994942 3.85033 0.0663295C4.03606 0.0331647 4.32791 0.00663295 4.49373 0C4.65955 0 5.00447 0.0397977 5.25652 0.0928613C5.50857 0.152558 5.89991 0.278584 6.1188 0.378078C6.33106 0.477572 6.63617 0.643396 6.78873 0.756156C6.94129 0.862283 7.40559 1.26689 7.82347 1.6516C8.23471 2.03632 8.85821 2.62002 9.20312 2.95166C9.54804 3.27668 9.91948 3.61496 10.0322 3.69455C10.1516 3.78078 10.3241 3.84711 10.4634 3.84711C10.6027 3.84711 10.7751 3.78741 10.8945 3.69455C11.0073 3.61496 11.5844 3.08432 12.1879 2.51389C12.7915 1.95009 13.4681 1.31332 13.7003 1.10107C13.9457 0.875549 14.3304 0.616864 14.6554 0.457674C14.9605 0.305116 15.4447 0.139292 15.7366 0.0795954C16.1744 -0.00663295 16.3667 -0.0132659 16.831 0.0464306C17.1627 0.0862283 17.5606 0.185723 17.7928 0.29185C18.0117 0.391344 18.3566 0.5837 18.5556 0.722991C18.7546 0.862283 19.073 1.13423 19.2653 1.33322C19.451 1.52558 19.7296 1.87712 19.8755 2.11591C20.0281 2.3547 20.1939 2.67971 20.247 2.84554C20.3067 3.01136 20.3796 3.33637 20.4128 3.57516C20.446 3.82058 20.446 4.21856 20.4128 4.50377C20.3863 4.79562 20.2735 5.20687 20.1541 5.49872C20.0414 5.77067 19.849 6.13548 19.7362 6.3013C19.6169 6.46713 18.8806 7.28961 18.1045 8.12536C17.3152 8.97438 16.6785 9.71727 16.6586 9.81013C16.6387 9.90299 16.6387 10.0622 16.6586 10.1749C16.6851 10.3142 17.0963 10.8051 18.1045 11.8929C18.8806 12.722 19.6169 13.5445 19.7362 13.7169C19.8556 13.8828 20.0414 14.2476 20.1541 14.5195C20.2801 14.8246 20.3796 15.2226 20.4194 15.5476C20.4526 15.8726 20.4526 16.2375 20.4128 16.4895C20.373 16.7217 20.2868 17.0666 20.2138 17.2523C20.1409 17.4447 19.9817 17.7498 19.8689 17.9355C19.7495 18.1146 19.4908 18.4396 19.2852 18.6585C19.0862 18.8707 18.7546 19.156 18.5556 19.2952C18.3566 19.4345 18.0117 19.6269 17.7928 19.7198C17.5739 19.8193 17.1693 19.932 16.8973 19.9652C16.5591 20.0116 16.2473 20.0116 15.9223 19.9652C15.657 19.9254 15.2524 19.8193 15.0269 19.7264C14.7947 19.6335 14.4896 19.4876 14.3437 19.4014C14.1977 19.3151 13.6472 18.8508 13.1166 18.36C12.5859 17.8758 12.115 17.4447 12.0686 17.4049C12.0221 17.3717 11.7435 17.0997 11.4384 16.8013C11.12 16.4895 10.8149 16.2441 10.6955 16.2176C10.5828 16.191 10.3904 16.191 10.2644 16.2176C10.0986 16.2507 9.86642 16.4232 9.47507 16.8013C9.16996 17.0997 8.65922 17.5773 8.34747 17.8758C8.03572 18.1676 7.61785 18.5524 7.42549 18.7381C7.2265 18.9172 6.92802 19.1626 6.7622 19.282C6.58974 19.4014 6.23156 19.5871 5.97288 19.6932C5.70756 19.806 5.25652 19.9254 4.97793 19.9585C4.62639 20.005 4.30801 20.005 3.98299 19.9585C3.71767 19.9254 3.3396 19.8259 3.15387 19.7397C2.96152 19.6534 2.62324 19.4611 2.40435 19.3151C2.18546 19.1626 1.85382 18.884 1.66146 18.685C1.47574 18.4927 1.19715 18.1411 1.05123 17.9023C0.898671 17.6635 0.719582 17.2921 0.653252 17.0732C0.58029 16.8543 0.507327 16.5227 0.487428 16.3436C0.467529 16.1645 0.474162 15.7798 0.51396 15.4946C0.547125 15.216 0.666518 14.7649 0.779278 14.5063C0.885405 14.2409 1.07113 13.8828 1.19052 13.7169C1.30991 13.5445 2.04617 12.722 2.82223 11.8929C3.61155 11.0372 4.24831 10.301 4.26821 10.2081C4.28811 10.1152 4.28811 9.95606 4.26821 9.8433C4.24168 9.704 3.83043 9.21317 2.82223 8.12536C2.04617 7.29624 1.30991 6.47376 1.19052 6.3013C1.07113 6.13548 0.885405 5.77067 0.772645 5.49872C0.646619 5.1936 0.547125 4.79562 0.507327 4.47061C0.474162 4.16549 0.474162 3.77415 0.507327 3.542C0.540492 3.32311 0.620087 3.01136 0.679784 2.84554C0.73948 2.67971 0.878772 2.38123 0.998165 2.18224C1.11093 1.98325 1.38951 1.62507 1.6084 1.39292C1.82728 1.16077 2.18546 0.849018 2.40435 0.703093C2.62324 0.557168 2.96152 0.364812 3.15387 0.278584Z" fill="#CBC8C8"/>
</svg>
