<svg width="24" height="26" viewBox="0 0 24 26" fill="none" xmlns="http://www.w3.org/2000/svg">
<path fill-rule="evenodd" clip-rule="evenodd" d="M8.35755 0.043457C7.32489 0.0784625 5.92467 0.157225 5.25082 0.209733C4.4982 0.262241 3.84185 0.358506 3.5443 0.463522C3.28176 0.559787 2.88795 0.717312 2.66917 0.83108C2.45038 0.944847 1.99531 1.3124 1.65401 1.65371C1.2777 2.03002 0.927645 2.48509 0.761369 2.80014C0.621347 3.08893 0.437568 3.544 0.367557 3.80654C0.288795 4.08659 0.175027 5.08424 0.113768 6.16941C0.0437568 7.33334 0 9.9675 0 13.083C0 16.1547 0.0437568 18.8151 0.113768 19.9091C0.175027 20.9242 0.288795 21.9131 0.358806 22.1844C0.437568 22.4469 0.612595 22.8845 0.743866 23.1471C0.875136 23.4096 1.18143 23.8472 1.41772 24.1097C1.66276 24.3722 2.06532 24.7398 2.32786 24.9236C2.5904 25.0986 3.08048 25.3524 3.41303 25.4749C3.85935 25.6324 4.32317 25.72 5.11955 25.7725C5.72339 25.825 7.64869 25.895 9.40772 25.9475C11.6481 26.0175 13.3458 26.0175 15.0961 25.9475C16.4701 25.895 18.0978 25.8162 18.7279 25.7725C19.5768 25.7112 20.0231 25.6412 20.4782 25.4749C20.8195 25.3524 21.3008 25.0986 21.5634 24.9236C21.8259 24.7398 22.2197 24.3897 22.4385 24.1447C22.6573 23.9084 22.9636 23.4709 23.1211 23.1821C23.2699 22.902 23.4537 22.4469 23.5237 22.1844C23.5937 21.9219 23.7074 20.8805 23.7687 19.8653C23.8387 18.7451 23.8912 16.2772 23.8912 13.5643C23.8912 9.5912 23.8737 9.03111 23.7337 8.48852C23.6549 8.15597 23.4537 7.65714 23.2961 7.3946C23.1386 7.13206 22.596 6.37944 22.0972 5.73184C21.5896 5.08424 20.6882 4.06033 20.0844 3.45649C19.4805 2.84389 18.5354 1.98626 17.9841 1.54869C17.4327 1.10237 16.7589 0.63855 16.4963 0.507279C16.2338 0.38476 15.7787 0.227236 15.4899 0.157225C15.1486 0.0784625 14.1422 0.0259543 12.602 0.00845159C11.3068 -0.00905114 9.39021 -0.000299773 8.35755 0.043457ZM8.70761 5.53056C8.6376 5.55682 8.35755 5.7581 8.09501 5.98563C7.83247 6.20442 7.38615 6.62448 7.10611 6.91328C6.81731 7.20207 6.39725 7.7359 6.16096 8.09471C6.10521 8.17936 6.04898 8.26499 5.99467 8.34768L5.99452 8.34791C5.8187 8.61563 5.6631 8.85256 5.60962 8.92609C5.49586 9.09237 5.47835 9.09237 5.1283 8.76857C4.93577 8.59354 4.67323 8.40101 4.55071 8.35725C4.42819 8.31349 4.22691 8.26974 4.09564 8.26974C3.95562 8.27849 3.71058 8.35725 3.5443 8.45352C3.37803 8.54103 3.16799 8.74231 3.08923 8.88233C2.99297 9.03986 2.93171 9.32865 2.93171 9.59995C2.98866 9.90177 3.13827 10.1792 3.35815 10.3936C4.62069 11.6251 5.07334 12.0963 5.25082 12.2254C5.48711 12.3916 5.70589 12.4704 5.93342 12.4704C6.10845 12.4704 6.36224 12.4179 6.50226 12.3479C6.63353 12.2779 6.79981 12.1553 6.87857 12.0678C6.95733 11.9716 7.21988 11.4727 7.45616 10.9389C7.6837 10.4051 8.06001 9.72246 8.27879 9.40742C8.49757 9.09237 9.04016 8.50602 9.48648 8.09471C10.0291 7.59588 10.3179 7.25458 10.3879 7.04455C10.4579 6.81701 10.4579 6.65074 10.3879 6.38819C10.3354 6.19566 10.1691 5.92437 10.0203 5.7756C9.79278 5.56557 9.66151 5.51306 9.29395 5.49556C9.04016 5.4868 8.77762 5.49556 8.70761 5.53056ZM13.5559 8.82982C13.3983 8.89984 13.1971 9.06611 13.092 9.19738C12.9958 9.3374 12.8908 9.59119 12.8558 9.75747C12.812 9.98501 12.847 10.1775 12.987 10.4751C13.1095 10.7551 13.2671 10.9477 13.4596 11.0439C13.7134 11.1839 14.0459 11.2014 16.5838 11.2014C19.2705 11.2014 19.4455 11.1927 19.7256 11.0264C19.8831 10.9302 20.0931 10.7114 20.1806 10.5451C20.2769 10.3788 20.3469 10.125 20.3469 9.97625C20.3469 9.82748 20.2769 9.57369 20.1894 9.40742C20.1106 9.24114 19.9006 9.0136 19.7343 8.89984C19.428 8.70731 19.4105 8.69855 16.6276 8.70731C14.4835 8.71606 13.7659 8.74231 13.5559 8.82982ZM7.47367 14.632C7.91123 14.2119 8.40131 13.7918 8.55883 13.6956C8.70761 13.5993 8.98765 13.5206 9.17143 13.5206C9.34646 13.5206 9.58274 13.5643 9.69651 13.6168C9.80153 13.6693 9.97655 13.8006 10.0903 13.9056C10.1953 14.0019 10.3266 14.2294 10.3791 14.3957C10.4316 14.562 10.4491 14.842 10.4141 15.0083C10.3616 15.2446 10.1253 15.5421 9.37271 16.2772C8.66385 16.9861 8.29629 17.4237 7.99875 17.94C7.77996 18.3251 7.50867 18.8589 7.40365 19.1214C7.38846 19.1565 7.37265 19.1931 7.35644 19.2306L7.35637 19.2308C7.2512 19.4743 7.12941 19.7563 7.0536 19.9003C6.97484 20.0578 6.79981 20.2679 6.65104 20.3554C6.50226 20.4516 6.22222 20.5216 5.99468 20.5216C5.7584 20.5216 5.49586 20.4516 5.33833 20.3641C5.2037 20.277 4.78237 19.8387 3.49707 18.6016C3.2162 18.3313 3.03218 17.9756 2.97546 17.5899C2.97546 17.0124 2.98422 16.9948 3.32552 16.7061C3.51805 16.5398 3.80684 16.391 3.96437 16.3647C4.11314 16.3385 4.37568 16.3735 4.53321 16.4348C4.68198 16.496 4.97953 16.6973 5.55712 17.1961L5.69714 16.9073C5.7759 16.7586 6.02969 16.3472 6.26598 16.0147C6.49351 15.6821 7.0361 15.0608 7.47367 14.632ZM13.5471 17.3712C13.2758 17.5024 13.1183 17.6512 12.987 17.9137C12.8645 18.1588 12.812 18.3951 12.8383 18.5963C12.8558 18.7626 12.9608 19.0164 13.057 19.1652C13.1533 19.314 13.3721 19.4977 13.5559 19.5765C13.8359 19.7165 14.1772 19.734 16.6101 19.734C19.0342 19.734 19.3755 19.7165 19.6381 19.5765C19.8043 19.4977 20.0231 19.314 20.1194 19.1827C20.2507 19.0077 20.3032 18.7976 20.3032 18.4651C20.3032 18.1238 20.2507 17.9312 20.1194 17.7475C20.0231 17.6162 19.8043 17.4324 19.6381 17.3537C19.3755 17.2224 19.008 17.2049 16.6276 17.2049C14.1072 17.1961 13.8884 17.2136 13.5384 17.3712H13.5471Z" fill="#4F85EB"/>
</svg>
