<svg width="158" height="131" viewBox="0 0 158 131" fill="none" xmlns="http://www.w3.org/2000/svg">
<mask id="mask0_239_3103" style="mask-type:alpha" maskUnits="userSpaceOnUse" x="109" y="61" width="49" height="29">
<path d="M132.366 63.1241C123.597 65.8738 132.82 80.5023 119.363 81.3822C112.206 83.6553 102.186 88.4434 119.363 89.4113C140.834 90.6212 132.366 76.7627 136.146 72.3631C139.926 67.9636 147.789 71.5932 152.174 73.573C156.559 75.5528 158.222 70.4933 156.407 66.0938C154.593 61.6943 141.136 60.3744 132.366 63.1241Z" fill="#1547FA"/>
</mask>
<g mask="url(#mask0_239_3103)">
<path d="M132.366 63.1241C123.597 65.8738 132.82 80.5023 119.363 81.3822C112.206 83.6553 102.186 88.4434 119.363 89.4113C140.834 90.6212 132.366 76.7627 136.146 72.3631C139.926 67.9636 147.789 71.5932 152.174 73.573C156.559 75.5528 158.222 70.4933 156.407 66.0938C154.593 61.6943 141.136 60.3744 132.366 63.1241Z" fill="#3C6AC3"/>
<path d="M130.206 60.2686C121.436 63.0184 130.66 77.6468 117.203 78.5267C110.046 80.7998 100.026 85.588 117.203 86.5559C138.673 87.7657 130.206 73.9072 133.986 69.5077C137.766 65.1081 145.629 68.7377 150.014 70.7175C154.398 72.6973 156.062 67.6379 154.247 63.2383C152.433 58.8388 138.976 57.5189 130.206 60.2686Z" fill="#4D83EC"/>
</g>
<path d="M120.008 72.8791C120.563 105.105 121.129 125.494 64.215 127.614C5.77815 129.006 4.79411 104.19 5.09508 71.3671C5.09508 40.6367 22.332 14.4092 64.215 14.4092C99.8986 14.4092 118.799 38.8587 120.008 72.8791Z" fill="#4D83EC"/>
<mask id="mask1_239_3103" style="mask-type:alpha" maskUnits="userSpaceOnUse" x="20" y="24" width="86" height="75">
<ellipse cx="62.5692" cy="61.5773" rx="42.5067" ry="36.7801" fill="white"/>
</mask>
<g mask="url(#mask1_239_3103)">
<ellipse cx="62.5692" cy="61.5773" rx="42.5067" ry="36.7801" fill="#E9EEFF"/>
<ellipse cx="59.6377" cy="59.0407" rx="39.5752" ry="34.2436" fill="white"/>
</g>
<path d="M49.2843 61.0331C48.957 64.2122 47.9382 67.0656 46.4302 69.0262C44.9222 70.9869 43.0355 71.9112 41.145 71.6156C39.2545 71.32 37.4987 69.8261 36.2263 67.4307C34.954 65.0354 34.2584 61.9139 34.2777 58.6867C34.2971 55.4595 35.0299 52.3627 36.3306 50.0119C37.6313 47.661 39.4047 46.2282 41.2984 45.998C43.192 45.7679 45.0672 46.7574 46.5514 48.7698C48.0357 50.7822 49.0202 53.6702 49.3093 56.8599L41.8374 58.8175L49.2843 61.0331Z" fill="#4F85EB"/>
<path d="M89.1978 61.0331C88.8639 64.2122 87.8247 67.0656 86.2865 69.0262C84.7484 70.9869 82.8239 71.9112 80.8956 71.6156C78.9673 71.32 77.1764 69.8261 75.8786 67.4307C74.5808 65.0354 73.8713 61.9139 73.891 58.6867C73.9107 55.4595 74.6582 52.3627 75.985 50.0119C77.3117 47.661 79.1206 46.2282 81.0521 45.998C82.9836 45.7679 84.8963 46.7574 86.4102 48.7698C87.9241 50.7822 88.9283 53.6702 89.2232 56.8599L81.6019 58.8175L89.1978 61.0331Z" fill="#4F85EB"/>
<path d="M21.5742 62.9001H27.0175" stroke="#B8C7FF" stroke-width="1.57432" stroke-linecap="round"/>
<path d="M98.3867 63.2024H103.83" stroke="#B8C7FF" stroke-width="1.57432" stroke-linecap="round"/>
<path d="M62.832 27.1587V32.2196" stroke="#B8C7FF" stroke-width="1.57432" stroke-linecap="round"/>
<path d="M62.3086 90.748V95.8089" stroke="#B8C7FF" stroke-width="1.57432" stroke-linecap="round"/>
<path d="M61.1381 64.3326L58.6742 62.2208C58.1193 61.7452 58.4557 60.8359 59.1865 60.8359H64.1142C64.845 60.8359 65.1814 61.7452 64.6265 62.2208L62.1626 64.3326C61.8679 64.5853 61.4329 64.5853 61.1381 64.3326Z" fill="#4D83EC"/>
<path d="M6.60547 97.6765C50.757 111.751 75.3699 111.701 119.1 97.6765C116.227 139.559 10.9509 144.365 6.60547 97.6765Z" fill="white"/>
<path d="M119.101 97.6764C73.1163 113.014 48.6415 111.025 6.60643 97.6764C6.36702 96.4906 6.15282 95.106 5.69922 92.2332C49.0819 108.779 75.3805 107.526 119.705 92.2332C119.64 94.4199 119.403 95.7108 119.101 97.6764Z" fill="#84A7EA"/>
<path d="M9.02734 106.749L23.2442 107.493L22.9589 113.593L13.261 113.704C12.9441 113.775 9.78335 109.319 9.02734 106.749Z" fill="#CFDEFD"/>
<path d="M117.435 104.934L101.954 106.094L102.455 112.164L113.353 112.041C114.865 110.529 117.133 106.094 117.435 104.934Z" fill="#CFDEFD"/>
<path d="M101.52 92.0817C103.154 85.9808 109.305 86.5578 114.404 87.924C119.502 89.2902 123.005 93.8433 121.37 99.9442C119.735 106.045 114.372 109.627 109.274 108.26C104.175 106.894 99.8849 98.1826 101.52 92.0817Z" fill="#3C6AC4"/>
<path d="M21.575 94.1989C19.9403 88.098 14.9342 88.3844 9.83548 89.7506C4.73675 91.1168 1.64489 98.5309 3.27962 104.632C4.91435 110.733 9.93245 112.948 15.2245 111.436C22.0286 108.865 23.6918 98.2813 21.575 94.1989Z" fill="#3C6AC4"/>
<ellipse cx="111.688" cy="94.3498" rx="10.4329" ry="13.6082" transform="rotate(180 111.688 94.3498)" fill="#4D83EC"/>
<ellipse cx="10.4329" cy="13.6082" rx="10.4329" ry="13.6082" transform="matrix(1 8.85319e-08 8.85319e-08 -1 1.31641 111.587)" fill="#4D83EC"/>
<ellipse cx="8.07678" cy="10.5349" rx="8.07678" ry="10.5349" transform="matrix(0.0560863 0.998426 0.998426 -0.0560863 30.3477 111.559)" fill="#4D83EC"/>
<ellipse cx="8.07678" cy="10.5349" rx="8.07678" ry="10.5349" transform="matrix(-4.37114e-08 1 1 4.37114e-08 73.8906 110.377)" fill="#4D83EC"/>
<g style="mix-blend-mode:multiply">
<path d="M84.2906 127.526C90.109 127.526 94.8256 123.91 94.8256 119.449C94.6755 120.951 91.3374 126.254 83.4259 126.405C75.5145 126.556 73.1361 118.24 74.6481 121.566C75.5554 123.834 78.4723 127.526 84.2906 127.526Z" fill="#CBC8C8" fill-opacity="0.5"/>
</g>
<path d="M95.0717 7.32719L80.5175 19.2829C79.1349 20.4187 79.4209 22.6103 81.0487 23.3532L100.437 32.2017C102.264 33.0355 104.253 31.4092 103.798 29.4533L98.9637 8.64897C98.5577 6.90164 96.4578 6.18851 95.0717 7.32719Z" fill="#4D83EC"/>
<path d="M28.94 7.32719L43.4942 19.2829C44.8768 20.4187 44.5908 22.6103 42.9631 23.3532L23.5744 32.2017C21.7476 33.0355 19.759 31.4092 20.2135 29.4533L25.048 8.64897C25.454 6.90164 27.5539 6.18851 28.94 7.32719Z" fill="#4D83EC"/>
<path fill-rule="evenodd" clip-rule="evenodd" d="M54.8259 65.4444C60.1761 68.4937 62.2859 68.2699 67.9021 65.4017C67.9662 65.369 68.039 65.3385 68.1075 65.3163C84.8172 59.8933 85.499 91.8615 70.1926 88.1395C70.0954 88.1159 69.9935 88.078 69.9039 88.0337C64.0663 85.1516 60.6879 85.4629 54.6637 88.1015C37.7072 93.0469 37.7559 61.0189 54.4786 65.3029C54.5969 65.3332 54.7198 65.384 54.8259 65.4444ZM51.9762 75.397C51.9762 76.3434 51.3301 77.1106 50.5331 77.1106C49.7361 77.1106 49.09 76.3434 49.09 75.397C49.09 74.4506 49.7361 73.6834 50.5331 73.6834C51.3301 73.6834 51.9762 74.4506 51.9762 75.397ZM72.8273 77.1106C73.6243 77.1106 74.2704 76.3434 74.2704 75.397C74.2704 74.4506 73.6243 73.6834 72.8273 73.6834C72.0303 73.6834 71.3842 74.4506 71.3842 75.397C71.3842 76.3434 72.0303 77.1106 72.8273 77.1106Z" fill="#DB7B7B"/>
<g style="mix-blend-mode:multiply">
<path d="M59.0641 84.668C50.3867 88.3207 46.203 87.0033 42.3281 81.3777C44.3963 87.8186 49.3599 91.1276 59.0641 86.4314C61.3419 85.9685 62.5412 85.9981 64.7329 86.1865L67.4934 86.8722C73.4394 89.9648 78.2778 88.1504 80.6779 81.3777C74.5162 88.1371 70.9984 87.5747 64.7329 84.668H59.0641Z" fill="#D9D9D9"/>
</g>
<circle cx="60.9474" cy="86.1098" r="7.76417" stroke="#D4E2F8" stroke-width="3.38999"/>
<g style="mix-blend-mode:multiply">
<path d="M70.4562 86.1099C70.4562 91.4682 66.2212 95.569 60.997 95.569C55.7729 95.569 51.5378 91.334 51.5378 86.1099C51.5378 80.8857 50.2256 94.2021 61.1063 94.7489C70.6749 94.4755 70.4562 80.8857 70.4562 86.1099Z" fill="#F1F1F1"/>
</g>
<ellipse cx="60.9712" cy="77.6326" rx="7.70949" ry="7.60014" fill="white"/>
<path d="M68.7191 77.6296C68.7191 81.827 65.2674 85.2297 61.0096 85.2297C57.264 85.5273 54.5368 82.2772 54.0286 80.9642C53.3195 79.1324 54.1015 84.1693 61.474 83.6233C68.6367 82.2564 68.7191 73.4322 68.7191 77.6296Z" fill="#D8D8D8" style="mix-blend-mode:multiply"/>
</svg>
