<svg width="280" height="214" viewBox="0 0 280 214" fill="none" xmlns="http://www.w3.org/2000/svg">
<g opacity="0.5">
<mask id="mask0_263_1864" style="mask-type:alpha" maskUnits="userSpaceOnUse" x="203" y="101" width="77" height="46">
<path d="M239.968 103.841C225.792 108.294 240.701 131.983 218.948 133.408C207.379 137.089 191.182 144.842 218.948 146.41C253.655 148.369 239.968 125.927 246.078 118.802C252.188 111.678 264.898 117.556 271.986 120.762C279.074 123.968 281.762 115.775 278.829 108.65C275.896 101.526 254.144 99.3882 239.968 103.841Z" fill="#1547FA"/>
</mask>
<g mask="url(#mask0_263_1864)">
<path d="M239.968 103.841C225.792 108.294 240.701 131.983 218.948 133.408C207.379 137.089 191.182 144.842 218.948 146.41C253.655 148.369 239.968 125.927 246.078 118.802C252.188 111.678 264.898 117.556 271.986 120.762C279.074 123.968 281.762 115.775 278.829 108.65C275.896 101.526 254.144 99.3882 239.968 103.841Z" fill="#3C6AC3"/>
<path d="M236.479 99.2172C222.303 103.67 237.212 127.359 215.46 128.784C203.891 132.465 187.694 140.219 215.46 141.786C250.166 143.745 236.479 121.303 242.59 114.179C248.7 107.054 261.409 112.932 268.497 116.138C275.586 119.344 278.274 111.151 275.341 104.026C272.408 96.9018 250.655 94.7644 236.479 99.2172Z" fill="#4D83EC"/>
</g>
<path d="M219.992 119.638C220.889 171.823 221.803 204.842 129.804 208.274C35.3419 210.529 33.7512 170.341 34.2378 117.189C34.2378 67.4255 62.1009 24.9534 129.804 24.9534C187.485 24.9534 218.037 64.5463 219.992 119.638Z" fill="#4D83EC"/>
<mask id="mask1_263_1864" style="mask-type:alpha" maskUnits="userSpaceOnUse" x="58" y="41" width="138" height="120">
<ellipse cx="127.145" cy="101.336" rx="68.711" ry="59.5607" fill="white"/>
</mask>
<g mask="url(#mask1_263_1864)">
<ellipse cx="127.145" cy="101.336" rx="68.711" ry="59.5607" fill="#E9EEFF"/>
<ellipse cx="122.406" cy="97.2282" rx="63.9723" ry="55.4531" fill="white"/>
</g>
<path d="M147.238 97.1626H177.143" stroke="#4D83EC" stroke-width="6" stroke-linecap="round"/>
<path d="M74.4961 97.1626H104.401" stroke="#4D83EC" stroke-width="6" stroke-linecap="round"/>
<path d="M60.8789 103.478H69.6778" stroke="#B8C7FF" stroke-width="1.57432" stroke-linecap="round"/>
<path d="M185.043 103.968H193.842" stroke="#B8C7FF" stroke-width="1.57432" stroke-linecap="round"/>
<path d="M127.57 45.5991V53.7946" stroke="#B8C7FF" stroke-width="1.57432" stroke-linecap="round"/>
<path d="M126.723 148.574V156.77" stroke="#B8C7FF" stroke-width="1.57432" stroke-linecap="round"/>
<path d="M125.148 106.069L119.85 101.52C119.296 101.044 119.633 100.135 120.363 100.135H130.958C131.689 100.135 132.025 101.044 131.471 101.52L126.174 106.069C125.879 106.322 125.443 106.322 125.148 106.069Z" fill="#4D83EC"/>
<path d="M36.6758 159.794C108.046 182.585 147.832 182.505 218.52 159.794C213.876 227.618 43.7001 235.4 36.6758 159.794Z" fill="white"/>
<path d="M218.521 159.794C144.189 184.631 104.626 181.411 36.6774 159.794C36.2904 157.873 35.9442 155.631 35.2109 150.979C105.338 177.772 147.849 175.744 219.499 150.979C219.393 154.52 219.01 156.611 218.521 159.794Z" fill="#84A7EA"/>
<path d="M40.5898 174.485L63.5711 175.691L63.1099 185.568L47.4334 185.748C46.9213 185.864 41.8119 178.647 40.5898 174.485Z" fill="#CFDEFD"/>
<path d="M215.832 171.547L190.806 173.424L191.616 183.255L209.233 183.055C211.677 180.606 215.343 173.424 215.832 171.547Z" fill="#CFDEFD"/>
<path d="M226.641 151.864C216.78 154.512 212.616 145.419 210.408 137.162C208.199 128.906 211.743 120.307 221.605 117.66C231.467 115.013 240.815 119.634 243.023 127.89C245.231 136.147 236.503 149.217 226.641 151.864Z" fill="#3C6AC4"/>
<ellipse cx="16.8833" cy="22.0123" rx="16.8833" ry="22.0123" transform="matrix(0.615929 0.787802 -0.786731 0.617297 230.133 108.878)" fill="#4D83EC"/>
<ellipse cx="13.0792" cy="17.0296" rx="13.0792" ry="17.0296" transform="matrix(0.0559863 0.998432 0.99842 -0.0561864 75.0547 182.275)" fill="#4D83EC"/>
<path d="M24.9724 152.607C34.8343 155.255 38.4794 148.002 40.6879 139.745C42.8963 131.489 35.0162 121.149 25.1543 118.502C15.2923 115.855 8.13546 121.099 5.97486 129.745C4.07396 141.368 17.5465 152.271 24.9724 152.607Z" fill="#3C6AC4"/>
<ellipse cx="16.8804" cy="22.016" rx="16.8804" ry="22.016" transform="matrix(-0.688997 0.724765 0.723532 0.690291 23.3242 108.335)" fill="#4D83EC"/>
<ellipse cx="13.0793" cy="17.0295" rx="13.0793" ry="17.0295" transform="matrix(-4.36332e-08 1 1 4.37897e-08 145.445 180.361)" fill="#4D83EC"/>
<g style="mix-blend-mode:multiply">
<path d="M162.254 208.132C171.659 208.132 179.283 202.276 179.283 195.052C179.041 197.484 173.645 206.071 160.856 206.315C148.067 206.56 144.223 193.093 146.667 198.48C148.133 202.153 152.848 208.132 162.254 208.132Z" fill="#CBC8C8" fill-opacity="0.5"/>
</g>
<path d="M189.068 14.0596L158.659 31.9098C157.117 32.8149 157.057 35.0254 158.546 36.0157L191.777 58.1045C193.449 59.2159 195.666 57.9225 195.525 55.9182L192.703 15.9793C192.577 14.1878 190.615 13.1518 189.068 14.0596Z" fill="#4D83EC"/>
<path d="M63.4055 12.8126L94.344 29.726C95.9126 30.5835 96.0406 32.7913 94.5816 33.8266L62.0383 56.9198C60.4009 58.0817 58.1457 56.8564 58.2262 54.8487L59.8311 14.8422C59.9031 13.0477 61.832 11.9525 63.4055 12.8126Z" fill="#4D83EC"/>
<path fill-rule="evenodd" clip-rule="evenodd" d="M114.529 107.541C123.27 112.55 126.667 112.19 135.826 107.498C135.89 107.465 135.963 107.435 136.032 107.412C163.141 98.5135 164.234 150.513 139.375 144.327C139.278 144.303 139.175 144.265 139.085 144.22C129.597 139.509 124.133 140.003 114.366 144.288C86.9179 152.308 87.0353 100.286 114.18 107.398C114.299 107.429 114.423 107.481 114.529 107.541ZM110.022 123.715C110.022 125.248 108.977 126.49 107.689 126.49C106.401 126.49 105.356 125.248 105.356 123.715C105.356 122.183 106.401 120.94 107.689 120.94C108.977 120.94 110.022 122.183 110.022 123.715ZM143.727 126.49C145.015 126.49 146.06 125.248 146.06 123.715C146.06 122.183 145.015 120.94 143.727 120.94C142.439 120.94 141.394 122.183 141.394 123.715C141.394 125.248 142.439 126.49 143.727 126.49Z" fill="#DB7B7B"/>
<g style="mix-blend-mode:multiply">
<path d="M121.479 138.728C107.452 144.643 100.689 142.51 94.4258 133.4C97.7689 143.83 105.792 149.189 121.479 141.584C125.161 140.834 127.1 140.882 130.643 141.187L135.105 142.298C144.716 147.306 152.538 144.368 156.417 133.4C146.457 144.346 140.771 143.435 130.643 138.728H121.479Z" fill="#D9D9D9"/>
</g>
<path d="M138.116 141.063C138.116 148.59 132.027 154.686 124.521 154.686C117.015 154.686 110.925 148.59 110.925 141.063C110.925 133.536 117.015 127.44 124.521 127.44C132.027 127.44 138.116 133.536 138.116 141.063Z" stroke="#D4E2F8" stroke-width="3.38999"/>
<g style="mix-blend-mode:multiply">
<path d="M139.892 141.063C139.892 149.74 133.046 156.381 124.601 156.381C116.156 156.381 109.311 149.523 109.311 141.063C109.311 132.603 107.189 154.167 124.778 155.053C140.245 154.61 139.892 132.603 139.892 141.063Z" fill="#F1F1F1"/>
</g>
<ellipse cx="124.56" cy="127.335" rx="12.4622" ry="12.3074" fill="white"/>
<path d="M137.083 127.331C137.083 134.128 131.504 139.638 124.621 139.638C118.567 140.12 114.158 134.857 113.337 132.731C112.19 129.764 113.455 137.921 125.372 137.037C136.95 134.823 137.083 120.533 137.083 127.331Z" fill="#D8D8D8" style="mix-blend-mode:multiply"/>
</g>
</svg>
