<svg width="32" height="32" viewBox="0 0 32 32" fill="none" xmlns="http://www.w3.org/2000/svg">
<path fill-rule="evenodd" clip-rule="evenodd" d="M15.8704 0.000619198C16.4599 -0.0058623 17.4057 0.0395082 17.9757 0.0913601C18.5457 0.149694 19.3036 0.233953 19.6599 0.292286C20.0162 0.35062 20.6704 0.48025 21.1174 0.590435C21.5644 0.70062 22.2186 0.888584 22.5749 1.01173C22.9312 1.13488 23.5271 1.3747 23.9028 1.54321C24.2785 1.71173 24.8615 2.00988 25.1984 2.21081C25.5352 2.40525 26.047 2.74229 26.332 2.95618C26.617 3.17007 27.0704 3.53951 27.336 3.78581C27.6016 4.02563 28.0356 4.45989 28.2947 4.75155C28.5538 5.03674 28.9425 5.52933 29.1692 5.84693C29.3895 6.15804 29.7457 6.72841 29.9595 7.11082C30.1733 7.49323 30.4972 8.18026 30.685 8.64693C30.8729 9.1136 31.1125 9.79415 31.2162 10.1701C31.3263 10.546 31.4688 11.1293 31.5401 11.4664C31.6113 11.8034 31.715 12.3738 31.7668 12.7303C31.8186 13.0868 31.8964 13.7868 31.9287 14.2858C31.9676 14.7849 32 15.5562 32 16.0034C32 16.4506 31.9676 17.2219 31.9287 17.721C31.8964 18.2201 31.8186 18.9201 31.7668 19.2766C31.715 19.6331 31.6113 20.2034 31.5401 20.5405C31.4688 20.8775 31.3263 21.4608 31.2162 21.8368C31.1125 22.2127 30.8729 22.8997 30.685 23.3599C30.4972 23.8201 30.1733 24.5136 29.9595 24.896C29.7457 25.2784 29.3895 25.8488 29.1692 26.1599C28.9425 26.4775 28.5409 26.9766 28.2688 27.2812C27.9968 27.5859 27.5368 28.046 27.2453 28.3053C26.9603 28.5646 26.468 28.9534 26.1506 29.1803C25.8397 29.4007 25.2696 29.7572 24.8874 29.971C24.5053 30.1849 23.8121 30.509 23.3522 30.697C22.8923 30.8849 22.2057 31.1247 21.83 31.2285C21.4543 31.3386 20.8713 31.4812 20.5344 31.5525C20.1976 31.6238 19.6275 31.7275 19.2713 31.7794C18.915 31.8312 18.1571 31.909 17.587 31.9544C16.9652 31.9998 16.0583 32.0127 15.3198 31.9868C14.6462 31.9673 13.8235 31.922 13.5061 31.8831C13.1887 31.8442 12.5862 31.7599 12.1781 31.6886C11.77 31.6173 11.0964 31.4747 10.6883 31.371C10.2802 31.2673 9.67773 31.0859 9.36032 30.9757C9.04291 30.859 8.47287 30.6322 8.09717 30.4636C7.72146 30.2951 7.12551 29.9905 6.76923 29.7766C6.41296 29.5692 5.84291 29.1868 5.50607 28.9275C5.16923 28.6747 4.58623 28.1627 4.217 27.7933C3.84777 27.4238 3.32308 26.821 3.05101 26.4646C2.77895 26.1016 2.37085 25.4729 2.13765 25.071C1.90445 24.6627 1.56761 23.9692 1.37976 23.522C1.19838 23.0747 0.945749 22.3747 0.822672 21.9664C0.699595 21.5581 0.537652 20.9294 0.466397 20.5729C0.388664 20.2164 0.28502 19.6201 0.233198 19.2442C0.174899 18.8682 0.103644 18.1812 0.0647773 17.721C0.0323887 17.2608 0 16.4831 0 16.0034C0 15.5238 0.0323887 14.7525 0.0647773 14.2858C0.103644 13.8192 0.174899 13.1386 0.233198 12.7627C0.28502 12.3868 0.375708 11.8618 0.42753 11.596C0.479352 11.3303 0.602429 10.8312 0.693117 10.4942C0.783806 10.1571 0.965182 9.57378 1.10121 9.19786C1.23077 8.82193 1.4834 8.21267 1.66478 7.83674C1.83968 7.46082 2.15061 6.89693 2.34494 6.57285C2.54575 6.24878 2.9085 5.73026 3.15466 5.40618C3.40729 5.08211 3.89959 4.53766 4.24939 4.18118C4.59919 3.83118 5.16923 3.33211 5.50607 3.07933C5.84291 2.82007 6.4 2.45062 6.73684 2.2497C7.07368 2.04877 7.63077 1.7571 7.96761 1.59507C8.30445 1.43951 8.91984 1.19321 9.32793 1.05062C9.73603 0.901547 10.4356 0.694139 10.8826 0.590435C11.3296 0.48025 11.9968 0.344138 12.3725 0.285805C12.7482 0.227471 13.4478 0.143212 13.9271 0.0978416C14.4065 0.0459897 15.281 0.00710069 15.8704 0.000619198ZM12.3725 9.45712C12.23 9.52841 12.0097 9.68397 11.8737 9.79416C11.7441 9.91082 11.5692 10.1247 11.4785 10.2673C11.3879 10.4099 11.2777 10.6432 11.2259 10.7858C11.1547 10.9997 11.1352 11.946 11.1352 16.0034C11.1352 20.0608 11.1547 21.0071 11.2259 21.221C11.2777 21.3636 11.3879 21.597 11.4785 21.7395C11.5692 21.8821 11.7506 22.096 11.8931 22.2192C12.0292 22.3423 12.3077 22.5173 12.502 22.6081C12.7935 22.7442 12.9555 22.7766 13.3765 22.7766C13.8105 22.7766 13.9595 22.7442 14.2834 22.5951C14.4972 22.4979 15.0478 22.2062 15.5142 21.9534C15.9806 21.7007 16.8227 21.2145 17.3927 20.8775C17.9628 20.5405 18.7789 20.022 19.2065 19.7368C19.634 19.4451 20.2753 18.9784 20.6316 18.6997C20.9879 18.421 21.4996 17.9608 21.7652 17.6886C22.0372 17.4099 22.3482 17.0081 22.4777 16.7747C22.6526 16.4442 22.698 16.2886 22.698 16.0034C22.698 15.7182 22.6526 15.5627 22.4777 15.2321C22.3417 14.9793 22.0437 14.5969 21.7328 14.2858C21.4478 14.0006 20.9684 13.5664 20.664 13.3266C20.3595 13.0803 19.7765 12.659 19.3684 12.3803C18.9603 12.1016 18.2154 11.6284 17.7166 11.3238C17.2178 11.0256 16.3563 10.5266 15.8057 10.2219C15.2551 9.91082 14.5943 9.5673 14.3482 9.45064C14.0308 9.30156 13.7781 9.23675 13.5061 9.22378C13.2923 9.21082 13.0073 9.23026 12.8713 9.26267C12.7417 9.30156 12.515 9.38582 12.3725 9.45712Z" fill="#4D83EC"/>
</svg>
