<svg width="10" height="10" viewBox="0 0 10 10" fill="none" xmlns="http://www.w3.org/2000/svg">
<path d="M5 10C4.65744 10 4.39394 9.90777 4.20949 9.72332C4.02503 9.52569 3.93281 9.2556 3.93281 8.91304V5.96838H1.04743C0.71805 5.96838 0.461133 5.88274 0.27668 5.71146C0.0922266 5.52701 0 5.27009 0 4.94071C0 4.61133 0.0922266 4.361 0.27668 4.18972C0.461133 4.00527 0.71805 3.91304 1.04743 3.91304H3.93281V1.08696C3.93281 0.731225 4.02503 0.461133 4.20949 0.27668C4.39394 0.0922266 4.66403 0 5.01976 0C5.36232 0 5.61924 0.0922266 5.79051 0.27668C5.97497 0.461133 6.06719 0.731225 6.06719 1.08696V3.91304H8.95257C9.29513 3.91304 9.55204 4.00527 9.72332 4.18972C9.90777 4.361 10 4.61133 10 4.94071C10 5.27009 9.90777 5.52701 9.72332 5.71146C9.55204 5.88274 9.29513 5.96838 8.95257 5.96838H6.06719V8.91304C6.06719 9.2556 5.97497 9.52569 5.79051 9.72332C5.61924 9.90777 5.35573 10 5 10Z" fill="#4D83EC"/>
</svg>
