<svg width="80" height="80" viewBox="0 0 80 80" fill="none" xmlns="http://www.w3.org/2000/svg">
<path fill-rule="evenodd" clip-rule="evenodd" d="M39.6761 0.00154799C41.1498 -0.0146557 43.5142 0.0987704 44.9393 0.2284C46.3644 0.374234 48.2591 0.584882 49.1498 0.730716C50.0405 0.87655 51.6761 1.20062 52.7935 1.47609C53.9109 1.75155 55.5466 2.22146 56.4372 2.52933C57.3279 2.8372 58.8178 3.43674 59.7571 3.85804C60.6964 4.27933 62.1538 5.0247 62.9959 5.52702C63.8381 6.01313 65.1174 6.85573 65.83 7.39045C66.5425 7.92517 67.6761 8.84879 68.3401 9.46453C69.004 10.0641 70.0891 11.1497 70.7368 11.8789C71.3846 12.5918 72.3563 13.8233 72.9231 14.6173C73.4737 15.3951 74.3644 16.821 74.8988 17.777C75.4332 18.7331 76.2429 20.4507 76.7125 21.6173C77.1822 22.784 77.7814 24.4854 78.0405 25.4252C78.3158 26.365 78.6721 27.8234 78.8502 28.6659C79.0283 29.5085 79.2874 30.9345 79.417 31.8257C79.5466 32.7169 79.7409 34.4669 79.8219 35.7146C79.919 36.9623 80 38.8905 80 40.0086C80 41.1266 79.919 43.0549 79.8219 44.3026C79.7409 45.5502 79.5466 47.3002 79.417 48.1914C79.2874 49.0826 79.0283 50.5086 78.8502 51.3512C78.6721 52.1938 78.3158 53.6521 78.0405 54.5919C77.7814 55.5317 77.1822 57.2493 76.7125 58.3998C76.2429 59.5503 75.4332 61.2841 74.8988 62.2401C74.3644 63.1961 73.4737 64.622 72.9231 65.3998C72.3563 66.1938 71.3522 67.4415 70.6721 68.2031C69.9919 68.9646 68.8421 70.1151 68.1134 70.7632C67.4008 71.4114 66.17 72.3836 65.3765 72.9507C64.5992 73.5017 63.1741 74.3929 62.2186 74.9276C61.2632 75.4623 59.5304 76.2725 58.3806 76.7424C57.2308 77.2123 55.5142 77.8119 54.5749 78.0711C53.6356 78.3466 52.1781 78.7031 51.336 78.8813C50.4939 79.0595 49.0688 79.3188 48.1781 79.4484C47.2874 79.5781 45.3927 79.7725 43.9676 79.8859C42.413 79.9994 40.1457 80.0318 38.2996 79.967C36.6154 79.9184 34.5587 79.8049 33.7652 79.7077C32.9717 79.6105 31.4656 79.3998 30.4453 79.2216C29.4251 79.0434 27.7409 78.6869 26.7206 78.4276C25.7004 78.1684 24.1943 77.7146 23.4008 77.4392C22.6073 77.1475 21.1822 76.5804 20.2429 76.1591C19.3036 75.7378 17.8138 74.9762 16.9231 74.4415C16.0324 73.923 14.6073 72.9669 13.7652 72.3188C12.9231 71.6869 11.4656 70.4068 10.5425 69.4831C9.61943 68.5595 8.30769 67.0526 7.62753 66.1614C6.94737 65.254 5.92713 63.6822 5.34413 62.6776C4.76113 61.6567 3.91903 59.923 3.44939 58.8049C2.99595 57.6868 2.36437 55.9368 2.05668 54.916C1.74899 53.8952 1.34413 52.3234 1.16599 51.4322C0.97166 50.541 0.712551 49.0502 0.582996 48.1104C0.437247 47.1706 0.259109 45.453 0.161943 44.3026C0.0809717 43.1521 0 41.2076 0 40.0086C0 38.8095 0.0809717 36.8812 0.161943 35.7146C0.259109 34.5479 0.437247 32.8465 0.582996 31.9067C0.712551 30.9669 0.939271 29.6544 1.06883 28.99C1.19838 28.3257 1.50607 27.078 1.73279 26.2354C1.95951 25.3928 2.41296 23.9345 2.75304 22.9946C3.07692 22.0548 3.7085 20.5317 4.16194 19.5919C4.59919 18.652 5.37652 17.2423 5.86235 16.4321C6.36437 15.6219 7.27126 14.3256 7.88664 13.5155C8.51822 12.7053 9.74899 11.3442 10.6235 10.453C11.498 9.57795 12.9231 8.33027 13.7652 7.69832C14.6073 7.05017 16 6.12656 16.8421 5.62424C17.6842 5.12193 19.0769 4.39276 19.919 3.98767C20.7611 3.59878 22.2996 2.98303 23.3198 2.62655C24.3401 2.25387 26.0891 1.73535 27.2065 1.47609C28.3239 1.20062 29.9919 0.860346 30.9312 0.714512C31.8704 0.568679 33.6194 0.35803 34.8178 0.244604C36.0162 0.114974 38.2024 0.0177517 39.6761 0.00154799ZM30.9312 23.6428C30.5749 23.821 30.0243 24.2099 29.6842 24.4854C29.3603 24.7771 28.9231 25.3118 28.6964 25.6683C28.4696 26.0247 28.1943 26.6081 28.0648 26.9646C27.8866 27.4993 27.8381 29.865 27.8381 40.0086C27.8381 50.1521 27.8866 52.5178 28.0648 53.0526C28.1943 53.409 28.4696 53.9924 28.6964 54.3489C28.9231 54.7053 29.3765 55.2401 29.7328 55.5479C30.0729 55.8558 30.7692 56.2933 31.2551 56.5202C31.9838 56.8604 32.3887 56.9415 33.4413 56.9415C34.5263 56.9415 34.8988 56.8604 35.7085 56.4878C36.2429 56.2447 37.6194 55.5155 38.7854 54.8836C39.9514 54.2516 42.0567 53.0364 43.4818 52.1938C44.9069 51.3512 46.9474 50.0549 48.0162 49.3419C49.085 48.6127 50.6883 47.4461 51.5789 46.7493C52.4696 46.0526 53.749 44.9021 54.413 44.2215C55.0931 43.5248 55.8704 42.5201 56.1943 41.9368C56.6316 41.1104 56.7449 40.7215 56.7449 40.0086C56.7449 39.2956 56.6316 38.9067 56.1943 38.0803C55.8542 37.4484 55.1093 36.4924 54.332 35.7146C53.6194 35.0016 52.4211 33.916 51.6599 33.3164C50.8988 32.7007 49.4413 31.6474 48.4211 30.9507C47.4008 30.2539 45.5385 29.071 44.2915 28.3095C43.0445 27.5641 40.8907 26.3164 39.5142 25.5548C38.1376 24.7771 36.4858 23.9183 35.8704 23.6266C35.0769 23.2539 34.4453 23.0919 33.7652 23.0595C33.2308 23.0271 32.5182 23.0757 32.1781 23.1567C31.8542 23.2539 31.2874 23.4646 30.9312 23.6428Z" fill="#4D83EC"/>
</svg>
